<svg xmlns="http://www.w3.org/2000/svg" width="1291.845" height="427.982" viewBox="0 0 1291.845 427.982">
  <g id="Group_3019" data-name="Group 3019" transform="translate(-303 -534.186)">
    <g id="Group_1507" data-name="Group 1507" transform="translate(381.78 663.021)" opacity="0.3">
      <path id="path354" d="M41.528-262.747a1.488,1.488,0,0,1-1.057-.438,1.493,1.493,0,0,1,0-2.113l7.144-7.145a1.492,1.492,0,0,1,1.057-.438h0a1.491,1.491,0,0,1,1.056.438l7.144,7.145a1.494,1.494,0,0,1,0,2.113,1.493,1.493,0,0,1-2.114,0l-6.087-6.087-6.088,6.087a1.487,1.487,0,0,1-1.056.438" transform="translate(-40.033 272.879)" fill="#fff"/>
      <path id="path356" d="M47.3-229.662a1.5,1.5,0,0,1-1.5-1.495v-40.227a1.5,1.5,0,0,1,1.5-1.5,1.5,1.5,0,0,1,1.494,1.5v40.227a1.5,1.5,0,0,1-1.494,1.495" transform="translate(-38.656 272.879)" fill="#fff"/>
    </g>
    <g id="Group_1506" data-name="Group 1506" transform="translate(397.903 660.872)" opacity="0.3">
      <path id="path358" d="M61.686-237.777a1.491,1.491,0,0,1-1.056-.438l-7.144-7.144a1.493,1.493,0,0,1,0-2.113,1.493,1.493,0,0,1,2.114,0l6.087,6.087,6.088-6.087a1.493,1.493,0,0,1,2.114,0,1.494,1.494,0,0,1,0,2.113l-7.145,7.144a1.493,1.493,0,0,1-1.057.438" transform="translate(-53.047 280.994)" fill="#fff"/>
      <path id="path360" d="M60.308-231.4a1.494,1.494,0,0,1-1.494-1.493v-40.229a1.5,1.5,0,0,1,1.494-1.495,1.5,1.5,0,0,1,1.5,1.495v40.229a1.5,1.5,0,0,1-1.5,1.493" transform="translate(-51.67 274.614)" fill="#fff"/>
    </g>
    <g id="Group_1607" data-name="Group 1607" transform="translate(2261 -5063)">
      <g id="Group_1521" data-name="Group 1521" transform="translate(-1733.632 5594.66)">
        <path id="path362" d="M158.383-296.39a20.789,20.789,0,0,0,29.4,0,20.789,20.789,0,0,0,0-29.4,20.784,20.784,0,0,0-29.4,0A20.784,20.784,0,0,0,158.383-296.39Zm-12.957-51.636,4.973,4.973a6.608,6.608,0,0,0,7.622,1.181,34.225,34.225,0,0,1,3.941-1.638,6.615,6.615,0,0,0,4.555-6.226v-7.025a6.564,6.564,0,0,1,6.564-6.564h0a6.566,6.566,0,0,1,6.567,6.564v7.025a6.612,6.612,0,0,0,4.555,6.226,34.165,34.165,0,0,1,3.938,1.638,6.607,6.607,0,0,0,7.622-1.181l4.973-4.973a6.564,6.564,0,0,1,9.285,0h0a6.566,6.566,0,0,1,0,9.282l-4.973,4.973a6.612,6.612,0,0,0-1.181,7.625,33.961,33.961,0,0,1,1.635,3.938,6.619,6.619,0,0,0,6.229,4.555h7.025a6.564,6.564,0,0,1,6.564,6.564h0a6.565,6.565,0,0,1-6.564,6.567H211.73a6.615,6.615,0,0,0-6.229,4.555,33.482,33.482,0,0,1-1.635,3.938,6.612,6.612,0,0,0,1.181,7.625l4.973,4.971a6.569,6.569,0,0,1,0,9.285h0a6.564,6.564,0,0,1-9.285,0l-4.973-4.973a6.607,6.607,0,0,0-7.622-1.181,33.985,33.985,0,0,1-3.938,1.638,6.612,6.612,0,0,0-4.555,6.226v7.025a6.566,6.566,0,0,1-6.567,6.564h0a6.564,6.564,0,0,1-6.564-6.564v-7.025a6.616,6.616,0,0,0-4.555-6.226,34.225,34.225,0,0,1-3.941-1.638,6.608,6.608,0,0,0-7.622,1.181l-4.973,4.973a6.568,6.568,0,0,1-9.284,0h0a6.567,6.567,0,0,1,0-9.285l4.973-4.971a6.609,6.609,0,0,0,1.181-7.625,33.832,33.832,0,0,1-1.638-3.938,6.613,6.613,0,0,0-6.227-4.555h-7.025a6.565,6.565,0,0,1-6.565-6.564v0a6.565,6.565,0,0,1,6.565-6.564h7.025a6.615,6.615,0,0,0,6.227-4.555,34.035,34.035,0,0,1,1.638-3.938,6.611,6.611,0,0,0-1.181-7.625l-4.973-4.97a6.565,6.565,0,0,1,0-9.285h0a6.563,6.563,0,0,1,9.284,0" transform="translate(-118.317 365.852)" fill="#e7eefd"/>
      </g>
      <g id="Group_1522" data-name="Group 1522" transform="translate(-1659.849 5672.081)">
        <path id="path366" d="M178.378-282.9a15.9,15.9,0,0,0,21.149,7.622,15.9,15.9,0,0,0,7.622-21.146A15.9,15.9,0,0,0,186-304.054a15.9,15.9,0,0,0-7.625,21.149Zm4.072-40.506,2.286,4.867a5.053,5.053,0,0,0,5.177,2.824,26.619,26.619,0,0,1,3.26-.156,5.056,5.056,0,0,0,4.892-3.3l1.82-5.052a5.021,5.021,0,0,1,6.427-3.02h0a5.019,5.019,0,0,1,3.02,6.425l-1.822,5.051a5.061,5.061,0,0,0,1.66,5.663,25.968,25.968,0,0,1,2.411,2.2,5.05,5.05,0,0,0,5.788,1.128l4.867-2.288a5.019,5.019,0,0,1,6.678,2.408h0a5.019,5.019,0,0,1-2.406,6.679l-4.867,2.286a5.055,5.055,0,0,0-2.827,5.177,26.06,26.06,0,0,1,.156,3.26,5.056,5.056,0,0,0,3.3,4.892l5.054,1.822a5.019,5.019,0,0,1,3.02,6.425h0a5.021,5.021,0,0,1-6.425,3.02l-5.054-1.822a5.06,5.06,0,0,0-5.663,1.663,26.313,26.313,0,0,1-2.2,2.408,5.049,5.049,0,0,0-1.125,5.788l2.286,4.867a5.018,5.018,0,0,1-2.406,6.678h0a5.018,5.018,0,0,1-6.678-2.406l-2.288-4.867a5.054,5.054,0,0,0-5.177-2.827,26.073,26.073,0,0,1-3.26.156,5.059,5.059,0,0,0-4.89,3.3l-1.822,5.054a5.021,5.021,0,0,1-6.425,3.02h0a5.023,5.023,0,0,1-3.022-6.425l1.822-5.054a5.058,5.058,0,0,0-1.661-5.66,25.967,25.967,0,0,1-2.411-2.2,5.045,5.045,0,0,0-5.788-1.127l-4.867,2.286a5.019,5.019,0,0,1-6.678-2.406h0a5.019,5.019,0,0,1,2.409-6.678l4.867-2.289a5.052,5.052,0,0,0,2.824-5.177,26.066,26.066,0,0,1-.156-3.26,5.052,5.052,0,0,0-3.3-4.89l-5.051-1.822a5.02,5.02,0,0,1-3.022-6.425h0a5.021,5.021,0,0,1,6.427-3.02l5.051,1.82a5.061,5.061,0,0,0,5.663-1.661,25.594,25.594,0,0,1,2.2-2.409,5.055,5.055,0,0,0,1.128-5.791l-2.288-4.867a5.017,5.017,0,0,1,2.409-6.679h0a5.02,5.02,0,0,1,6.679,2.408" transform="translate(-154.885 327.545)" fill="#a8c4ff"/>
      </g>
    </g>
    <path id="path372" d="M314.016-278.278a9.353,9.353,0,0,1-9.355,9.352,9.351,9.351,0,0,1-9.352-9.352,9.353,9.353,0,0,1,9.352-9.355,9.356,9.356,0,0,1,9.355,9.355" transform="translate(584.769 923.255)" fill="none"/>
    <path id="path376" d="M75.92-190.7a9.352,9.352,0,0,1-9.354,9.352,9.353,9.353,0,0,1-9.354-9.352,9.355,9.355,0,0,1,9.354-9.355A9.355,9.355,0,0,1,75.92-190.7" transform="translate(324.497 1018.993)" fill="none"/>
    <g id="Group_1509" data-name="Group 1509" transform="translate(887.185 568.417)" opacity="0.3">
      <path id="path378" d="M67.885-196.207a6.837,6.837,0,0,0-6.829,6.829,6.835,6.835,0,0,0,6.829,6.826,6.835,6.835,0,0,0,6.829-6.826A6.837,6.837,0,0,0,67.885-196.207Zm0,18.707a11.893,11.893,0,0,1-11.878-11.878,11.894,11.894,0,0,1,11.878-11.881,11.894,11.894,0,0,1,11.879,11.881A11.893,11.893,0,0,1,67.885-177.5" transform="translate(-56.007 201.258)" fill="#fff"/>
    </g>
    <path id="path380" d="M243.517-322.662a9.356,9.356,0,0,1-9.355,9.355,9.353,9.353,0,0,1-9.352-9.355,9.351,9.351,0,0,1,9.352-9.352,9.353,9.353,0,0,1,9.355,9.352" transform="translate(507.704 874.74)" fill="none"/>
    <path id="path384" d="M524.55-304.563a9.353,9.353,0,0,1-9.355,9.352,9.351,9.351,0,0,1-9.352-9.352,9.353,9.353,0,0,1,9.352-9.355,9.356,9.356,0,0,1,9.355,9.355" transform="translate(814.913 894.521)" fill="none"/>
    <path id="Bg_circule" d="M516.514-310.073a6.838,6.838,0,0,0-6.829,6.829,6.838,6.838,0,0,0,6.829,6.829,6.838,6.838,0,0,0,6.829-6.829A6.838,6.838,0,0,0,516.514-310.073Zm0,18.707a11.891,11.891,0,0,1-11.878-11.878,11.893,11.893,0,0,1,11.878-11.881,11.9,11.9,0,0,1,11.881,11.881,11.893,11.893,0,0,1-11.881,11.878" transform="translate(831.594 860.202)" fill="#fff" opacity="0.3"/>
    <path id="path396" d="M645.88-230.1a9.356,9.356,0,0,1-9.355,9.355,9.354,9.354,0,0,1-9.352-9.355,9.351,9.351,0,0,1,9.352-9.352,9.353,9.353,0,0,1,9.355,9.352" transform="translate(947.545 975.921)" fill="none"/>
    <g id="Group_1520" data-name="Group 1520" transform="translate(1464.623 782.734)" opacity="0.3">
      <path id="path416" d="M557.769-206.632H546.047a2.525,2.525,0,0,1-2.526-2.526,2.525,2.525,0,0,1,2.526-2.526h11.722a2.525,2.525,0,0,1,2.526,2.526,2.525,2.525,0,0,1-2.526,2.526" transform="translate(-543.521 217.544)" fill="#fff"/>
      <path id="path418" d="M548.847-197.71a2.525,2.525,0,0,1-2.526-2.526v-11.722a2.525,2.525,0,0,1,2.526-2.526,2.525,2.525,0,0,1,2.526,2.526v11.722a2.525,2.525,0,0,1-2.526,2.526" transform="translate(-540.461 214.483)" fill="#fff"/>
    </g>
    <g id="Group_1512" data-name="Group 1512" transform="translate(725.393 564.458)" opacity="0.3">
      <path id="path420" d="M255.243-281.773H243.521A2.525,2.525,0,0,1,241-284.3a2.525,2.525,0,0,1,2.526-2.523h11.722a2.525,2.525,0,0,1,2.526,2.523,2.525,2.525,0,0,1-2.526,2.526" transform="translate(-240.995 292.683)" fill="#fff"/>
      <path id="path422" d="M246.321-272.852a2.524,2.524,0,0,1-2.526-2.523V-287.1a2.524,2.524,0,0,1,2.526-2.523,2.524,2.524,0,0,1,2.526,2.523v11.724a2.525,2.525,0,0,1-2.526,2.523" transform="translate(-237.935 289.622)" fill="#fff"/>
    </g>
    <g id="Bg_Down_Arrow" data-name="Bg_Down Arrow" transform="translate(1534.106 651.993)" opacity="0.3">
      <path id="path466" d="M610.821-242.913a1.494,1.494,0,0,1-1.062-.44l-7.188-7.188a1.5,1.5,0,0,1,0-2.126,1.5,1.5,0,0,1,2.126,0l6.124,6.124,6.126-6.124a1.5,1.5,0,0,1,2.126,0,1.5,1.5,0,0,1,0,2.126l-7.188,7.188a1.494,1.494,0,0,1-1.064.44" transform="translate(-602.13 286.393)" fill="#fff"/>
      <path id="path468" d="M609.4-236.33a1.5,1.5,0,0,1-1.5-1.5v-40.473a1.5,1.5,0,0,1,1.5-1.5,1.5,1.5,0,0,1,1.5,1.5v40.473a1.5,1.5,0,0,1-1.5,1.5" transform="translate(-600.708 279.811)" fill="#fff"/>
    </g>
    <g id="Bg_Big_Tire" data-name="Bg_Big Tire" transform="translate(1370.867 594.499)">
      <path id="path494" d="M642.9-315.745a17.393,17.393,0,0,0-24.6,0,17.4,17.4,0,0,0,0,24.6,17.4,17.4,0,0,0,24.6,0A17.4,17.4,0,0,0,642.9-315.745Zm18.612-18.609h0a5.5,5.5,0,0,1,0,7.77l-4.161,4.161a5.527,5.527,0,0,0-.991,6.377,28.194,28.194,0,0,1,1.37,3.3,5.537,5.537,0,0,0,5.213,3.812h5.878a5.492,5.492,0,0,1,5.492,5.492v0a5.492,5.492,0,0,1-5.492,5.492h-5.878a5.538,5.538,0,0,0-5.213,3.812,28.127,28.127,0,0,1-1.37,3.3,5.527,5.527,0,0,0,.991,6.377l4.161,4.161a5.5,5.5,0,0,1,0,7.77h0a5.493,5.493,0,0,1-7.77,0L649.58-276.7a5.531,5.531,0,0,0-6.38-.988,28.425,28.425,0,0,1-3.3,1.37,5.537,5.537,0,0,0-3.812,5.211v5.878a5.493,5.493,0,0,1-5.492,5.5h0a5.492,5.492,0,0,1-5.493-5.492v-5.88a5.54,5.54,0,0,0-3.812-5.211,28.427,28.427,0,0,1-3.3-1.37,5.531,5.531,0,0,0-6.38.988l-4.161,4.161a5.493,5.493,0,0,1-7.77,0h0a5.5,5.5,0,0,1,0-7.77l4.161-4.161a5.522,5.522,0,0,0,.988-6.377,28.575,28.575,0,0,1-1.367-3.3,5.537,5.537,0,0,0-5.213-3.812h-5.878a5.492,5.492,0,0,1-5.492-5.492v0a5.492,5.492,0,0,1,5.492-5.492h5.878a5.538,5.538,0,0,0,5.213-3.812,28.109,28.109,0,0,1,1.37-3.3,5.527,5.527,0,0,0-.991-6.377l-4.161-4.161a5.5,5.5,0,0,1,0-7.77h0a5.493,5.493,0,0,1,7.77,0l4.161,4.161a5.531,5.531,0,0,0,6.38.988,28.427,28.427,0,0,1,3.3-1.37,5.537,5.537,0,0,0,3.812-5.211v-5.878a5.494,5.494,0,0,1,5.493-5.5h0a5.493,5.493,0,0,1,5.492,5.5v5.878a5.537,5.537,0,0,0,3.812,5.211,28.416,28.416,0,0,1,3.3,1.37,5.531,5.531,0,0,0,6.38-.988l4.161-4.161a5.493,5.493,0,0,1,7.77,0" transform="translate(-574.361 339.685)" fill="#e7eefd"/>
    </g>
    <g id="Bg_Big_Tire-2" data-name="Bg_Big Tire" transform="translate(1335.268 657.17)">
      <path id="path498" d="M607.235-297.557a13.3,13.3,0,0,0-17.7,6.38,13.3,13.3,0,0,0,6.38,17.694,13.3,13.3,0,0,0,17.7-6.377A13.3,13.3,0,0,0,607.235-297.557Zm8.562-18.216h0a4.2,4.2,0,0,1,2.015,5.59l-1.914,4.072a4.224,4.224,0,0,0,.943,4.845,21.617,21.617,0,0,1,1.839,2.018,4.234,4.234,0,0,0,4.739,1.39l4.228-1.524a4.2,4.2,0,0,1,5.375,2.526h0a4.2,4.2,0,0,1-2.526,5.378l-4.228,1.524a4.233,4.233,0,0,0-2.76,4.094,22.339,22.339,0,0,1-.131,2.727,4.225,4.225,0,0,0,2.364,4.331l4.072,1.915a4.2,4.2,0,0,1,2.015,5.59h0a4.2,4.2,0,0,1-5.587,2.015l-4.075-1.915a4.225,4.225,0,0,0-4.845.943,21.576,21.576,0,0,1-2.015,1.839,4.23,4.23,0,0,0-1.39,4.736l1.524,4.231a4.2,4.2,0,0,1-2.526,5.375h0a4.2,4.2,0,0,1-5.375-2.526l-1.524-4.231a4.241,4.241,0,0,0-4.094-2.76,21.267,21.267,0,0,1-2.727-.131,4.225,4.225,0,0,0-4.331,2.367l-1.914,4.072a4.2,4.2,0,0,1-5.59,2.015h0a4.2,4.2,0,0,1-2.015-5.59l1.915-4.072a4.225,4.225,0,0,0-.943-4.845,21.591,21.591,0,0,1-1.839-2.015,4.24,4.24,0,0,0-4.739-1.393l-4.228,1.527a4.2,4.2,0,0,1-5.375-2.529h0a4.2,4.2,0,0,1,2.526-5.375l4.231-1.527a4.234,4.234,0,0,0,2.76-4.091,21.785,21.785,0,0,1,.128-2.727,4.229,4.229,0,0,0-2.364-4.334l-4.072-1.915a4.2,4.2,0,0,1-2.015-5.587h0a4.2,4.2,0,0,1,5.587-2.015l4.075,1.915a4.229,4.229,0,0,0,4.845-.943,21.577,21.577,0,0,1,2.015-1.839,4.234,4.234,0,0,0,1.39-4.739l-1.524-4.228a4.2,4.2,0,0,1,2.529-5.378h0a4.2,4.2,0,0,1,5.375,2.529l1.524,4.228a4.233,4.233,0,0,0,4.094,2.76,21.778,21.778,0,0,1,2.727.131,4.227,4.227,0,0,0,4.331-2.364l1.915-4.075a4.205,4.205,0,0,1,5.59-2.015" transform="translate(-567.352 319.744)" fill="#a8c4ff"/>
    </g>
    <g id="Bg_Two_Side_Arrow" data-name="Bg_Two Side Arrow" transform="translate(2246 -5120)">
      <g id="Group_1515" data-name="Group 1515" transform="translate(-1090.78 5719.621)" opacity="0.3">
        <path id="path522" d="M453.462-303.043a1.782,1.782,0,0,1,.524-1.266,1.79,1.79,0,0,1,2.53,0l8.555,8.555a1.789,1.789,0,0,1,.524,1.266h0a1.789,1.789,0,0,1-.524,1.266l-8.555,8.553a1.786,1.786,0,0,1-2.53,0,1.786,1.786,0,0,1,0-2.53l7.289-7.289-7.289-7.289a1.785,1.785,0,0,1-.524-1.266" transform="translate(-413.846 304.832)" fill="#fff"/>
        <path id="path524" d="M426.758-297.276a1.79,1.79,0,0,1,1.79-1.79h48.171a1.789,1.789,0,0,1,1.788,1.79,1.789,1.789,0,0,1-1.788,1.79H428.548a1.79,1.79,0,0,1-1.79-1.79" transform="translate(-426.758 307.62)" fill="#fff"/>
      </g>
      <g id="Group_1516" data-name="Group 1516" transform="translate(-1088.207 5738.927)" opacity="0.3">
        <path id="path526" d="M428.492-281.475a1.781,1.781,0,0,1,.524-1.264l8.555-8.555a1.786,1.786,0,0,1,2.53,0,1.786,1.786,0,0,1,0,2.53l-7.289,7.289,7.289,7.289a1.788,1.788,0,0,1,0,2.532,1.79,1.79,0,0,1-2.53,0l-8.555-8.555a1.789,1.789,0,0,1-.524-1.266" transform="translate(-428.492 291.819)" fill="#fff"/>
        <path id="path528" d="M428.492-284.263a1.789,1.789,0,0,1,1.79-1.788h48.169a1.789,1.789,0,0,1,1.79,1.788,1.79,1.79,0,0,1-1.79,1.79H430.282a1.79,1.79,0,0,1-1.79-1.79" transform="translate(-428.492 294.607)" fill="#fff"/>
      </g>
    </g>
    <g id="Group_1552" data-name="Group 1552" transform="translate(2171.206 -5142.889)">
      <g id="Group_1524" data-name="Group 1524" transform="translate(-1642.425 5957.762)">
        <path id="path22" d="M103.672-200.4l-2.553-16.667a3.006,3.006,0,0,1,2.971-3.461h12.892a3.006,3.006,0,0,1,2.972,3.461L117.4-200.4H103.672" transform="translate(-56.151 222.422)" fill="#e7eefd"/>
        <path id="path24" d="M117.343-206.385H102.859l-.874-6.1h0a39.339,39.339,0,0,1,16.168-.012l.062.012-.871,6.1" transform="translate(-55.684 226.15)" fill="#a8c4ff"/>
        <path id="path26" d="M167.161-128.092V-167.53a41.9,41.9,0,0,0-41.9-41.9h0a41.9,41.9,0,0,0-41.9,41.9v35.124a4.313,4.313,0,0,1-4.313,4.314H76.986a4.313,4.313,0,0,0-4.313,4.314h0a4.313,4.313,0,0,0,4.313,4.314h96.543a4.313,4.313,0,0,0,4.314-4.314h0a4.313,4.313,0,0,0-4.314-4.314h-6.368" transform="translate(-70.872 228.171)" fill="#e7eefd"/>
        <path id="path28" d="M128.853-177.029a16.06,16.06,0,0,1-16.062,16.06,16.06,16.06,0,0,1-16.061-16.06,16.061,16.061,0,0,1,16.061-16.062,16.061,16.061,0,0,1,16.062,16.062" transform="translate(-58.407 236.638)" fill="#f8b838"/>
        <path id="path30" d="M114.552-193.741a18.49,18.49,0,0,0-18.469,18.469A18.49,18.49,0,0,0,114.552-156.8a18.49,18.49,0,0,0,18.469-18.471A18.49,18.49,0,0,0,114.552-193.741Zm0,39.687a21.241,21.241,0,0,1-21.217-21.218,21.241,21.241,0,0,1,21.217-21.216,21.241,21.241,0,0,1,21.217,21.216,21.242,21.242,0,0,1-21.217,21.218" transform="translate(-60.166 234.879)" fill="#f8b838"/>
        <path id="path32" d="M112.563-175.094a1.45,1.45,0,0,0-.29-.923,2.586,2.586,0,0,0-1.056-.686v3.247A1.643,1.643,0,0,0,112.563-175.094Zm-4.146-9.611a1.465,1.465,0,0,0-1.135,1.451,1.743,1.743,0,0,0,1.135,1.611Zm0,16.769v-1.929a11.421,11.421,0,0,1-4.545-1.779,1.9,1.9,0,0,1-.372-2.791h0a1.9,1.9,0,0,1,2.547-.379,8.442,8.442,0,0,0,2.37,1.227v-3.935a9.406,9.406,0,0,1-4.067-1.915,4.485,4.485,0,0,1-1.293-3.459,5.021,5.021,0,0,1,1.478-3.723,6.423,6.423,0,0,1,3.882-1.757v-1.294h2.8v1.348a10.969,10.969,0,0,1,3.357,1.061,1.9,1.9,0,0,1,.752,2.779h0a1.855,1.855,0,0,1-2.4.6,8.256,8.256,0,0,0-1.71-.713v3.8a9.92,9.92,0,0,1,4.212,1.98,4.516,4.516,0,0,1,1.36,3.512,5.007,5.007,0,0,1-1.519,3.749,6.688,6.688,0,0,1-4.053,1.769v1.85h-2.8" transform="translate(-55.129 238.411)" fill="#f2f2f0"/>
        <path id="path34" d="M87.824-157.666a2.748,2.748,0,0,1-2.748-2.747v-12.255A31.557,31.557,0,0,1,116.6-204.189a2.746,2.746,0,0,1,2.747,2.747A2.747,2.747,0,0,1,116.6-198.7a26.057,26.057,0,0,0-26.028,26.027v12.255a2.748,2.748,0,0,1-2.747,2.747" transform="translate(-64.445 230.888)" fill="#a8c4ff"/>
        <path id="path36" d="M87.824-158.807a2.748,2.748,0,0,1-2.748-2.747V-168.5a2.748,2.748,0,0,1,2.748-2.747,2.748,2.748,0,0,1,2.747,2.747v6.951a2.748,2.748,0,0,1-2.747,2.747" transform="translate(-64.445 247.955)" fill="#f2f2f0"/>
        <path id="path38" d="M116.8-152.25h-3.475A2.746,2.746,0,0,1,110.583-155a2.747,2.747,0,0,1,2.747-2.747H116.8A2.747,2.747,0,0,1,119.552-155a2.746,2.746,0,0,1-2.747,2.747" transform="translate(-51.229 254.954)" fill="#a8c4ff"/>
        <path id="path40" d="M137.136-152.25H120.5A2.746,2.746,0,0,1,117.751-155a2.747,2.747,0,0,1,2.747-2.747h16.638A2.748,2.748,0,0,1,139.884-155a2.747,2.747,0,0,1-2.748,2.747" transform="translate(-47.514 254.954)" fill="#a8c4ff"/>
        <path id="path42" d="M77.632-119.927a2.485,2.485,0,0,0-2.483,2.482,2.485,2.485,0,0,0,2.483,2.482h96.542a2.485,2.485,0,0,0,2.482-2.482,2.485,2.485,0,0,0-2.482-2.482h-6.368a1.831,1.831,0,0,1-1.832-1.832V-161.2a39.983,39.983,0,0,0-33.062-39.448,1.832,1.832,0,0,1-1.493-2.075l2.09-14.034a1.163,1.163,0,0,0-.27-.949,1.158,1.158,0,0,0-.891-.409H119.457a1.156,1.156,0,0,0-.891.409,1.157,1.157,0,0,0-.27.941l2.148,14.026a1.832,1.832,0,0,1-1.5,2.081A39.973,39.973,0,0,0,85.831-161.2v35.124a6.152,6.152,0,0,1-6.146,6.145Zm96.542,8.627H77.632a6.152,6.152,0,0,1-6.145-6.146,6.152,6.152,0,0,1,6.145-6.145h2.053a2.485,2.485,0,0,0,2.483-2.482V-161.2a43.629,43.629,0,0,1,34.389-42.721l-1.882-12.289a4.833,4.833,0,0,1,1.112-3.882,4.834,4.834,0,0,1,3.671-1.686h12.891a4.834,4.834,0,0,1,3.671,1.686,4.828,4.828,0,0,1,1.112,3.882l-1.831,12.3A43.643,43.643,0,0,1,169.638-161.2v37.606h4.536a6.151,6.151,0,0,1,6.143,6.145,6.151,6.151,0,0,1-6.143,6.146" transform="translate(-71.487 221.775)" fill="none"/>
      </g>
      <g id="Group_1535" data-name="Group 1535" transform="translate(-1077.102 5862.733)">
        <path id="path44" d="M575.942-92.035H445.067V-262.37H575.942V-92.035" transform="translate(-443.235 295.769)" fill="#e7eefd"/>
        <path id="path46" d="M447.522-93.242H574.735V-259.913H447.522Zm129.045,3.664H445.69a1.831,1.831,0,0,1-1.83-1.832V-261.745a1.831,1.831,0,0,1,1.83-1.832H576.567a1.833,1.833,0,0,1,1.832,1.832V-91.41a1.833,1.833,0,0,1-1.832,1.832" transform="translate(-443.86 295.144)" fill="none"/>
        <path id="path48" d="M519.489-265.407v-2.959a14.8,14.8,0,0,0-14.8-14.8h0a14.8,14.8,0,0,0-14.8,14.8v2.959H469.177a14.8,14.8,0,0,0-14.8,14.8v8.222H555v-8.222a14.8,14.8,0,0,0-14.8-14.8H519.489" transform="translate(-438.409 284.995)" fill="#a8c4ff"/>
        <path id="path50" d="M456.837-243.594H553.8v-6.39A12.981,12.981,0,0,0,540.83-262.95H520.114a1.831,1.831,0,0,1-1.832-1.832v-2.96a12.979,12.979,0,0,0-12.965-12.965,12.981,12.981,0,0,0-12.967,12.965v2.959a1.831,1.831,0,0,1-1.83,1.832H469.8a12.979,12.979,0,0,0-12.965,12.965Zm98.791,3.662H455.005a1.831,1.831,0,0,1-1.832-1.83v-8.222A16.649,16.649,0,0,1,469.8-266.614h18.886v-1.127a16.647,16.647,0,0,1,16.629-16.629,16.647,16.647,0,0,1,16.629,16.629v1.127H540.83a16.648,16.648,0,0,1,16.629,16.629v8.222a1.831,1.831,0,0,1-1.83,1.83" transform="translate(-439.034 284.37)" fill="none"/>
        <path id="path52" d="M494.283-272.273a5.043,5.043,0,0,1-5.042,5.042,5.042,5.042,0,0,1-5.042-5.042,5.042,5.042,0,0,1,5.042-5.042,5.043,5.043,0,0,1,5.042,5.042" transform="translate(-422.958 288.025)" fill="#1458ea"/>
        <path id="path54" d="M522.206-222.8H509.492v-12.716h12.714V-222.8" transform="translate(-409.852 309.686)" fill="#fac57b"/>
        <path id="path54-2" data-name="path54" d="M522.206-222.8H509.492v-12.716h12.714V-222.8" transform="translate(-409.852 384.686)" fill="#a8c4ff"/>
        <path id="path54-3" data-name="path54" d="M522.206-222.8H509.492v-12.716h12.714V-222.8" transform="translate(-409.852 347.686)" fill="#a8c4ff"/>
        <path id="path56" d="M511.949-224H521v-9.052h-9.052Zm10.882,3.664H510.117a1.831,1.831,0,0,1-1.832-1.832v-12.716a1.831,1.831,0,0,1,1.832-1.83h12.714a1.831,1.831,0,0,1,1.832,1.83v12.716a1.832,1.832,0,0,1-1.832,1.832" transform="translate(-410.389 309.061)" fill="none"/>
        <path id="path58" d="M520.267-232.344H459.1a1.831,1.831,0,0,1-1.832-1.832,1.831,1.831,0,0,1,1.832-1.832h61.17a1.831,1.831,0,0,1,1.83,1.832,1.831,1.831,0,0,1-1.83,1.832" transform="translate(-436.914 309.43)" fill="#a8c4ff"/>
        <path id="path60" d="M520.267-225.392H459.1a1.831,1.831,0,0,1-1.832-1.832,1.831,1.831,0,0,1,1.832-1.83h61.17a1.831,1.831,0,0,1,1.83,1.83,1.831,1.831,0,0,1-1.83,1.832" transform="translate(-436.914 313.032)" fill="#a8c4ff"/>
        <path id="path62" d="M512.717-199.68h9.052v-9.052h-9.052Zm10.882,3.664H510.885a1.832,1.832,0,0,1-1.832-1.832v-12.716a1.831,1.831,0,0,1,1.832-1.83H523.6a1.831,1.831,0,0,1,1.832,1.83v12.716a1.831,1.831,0,0,1-1.832,1.832" transform="translate(-411.157 321.665)" fill="none"/>
        <path id="path64" d="M519.5-208.02h-61.17a1.831,1.831,0,0,1-1.832-1.832,1.831,1.831,0,0,1,1.832-1.832H519.5a1.833,1.833,0,0,1,1.832,1.832,1.833,1.833,0,0,1-1.832,1.832" transform="translate(-437.312 322.033)" fill="#a8c4ff"/>
        <path id="path66" d="M519.5-201.068h-61.17A1.831,1.831,0,0,1,456.5-202.9a1.831,1.831,0,0,1,1.832-1.83H519.5a1.832,1.832,0,0,1,1.832,1.83,1.833,1.833,0,0,1-1.832,1.832" transform="translate(-437.312 325.636)" fill="#a8c4ff"/>
        <path id="path68" d="M512.717-175.356h9.052v-9.05h-9.052Zm10.882,3.664H510.885a1.832,1.832,0,0,1-1.832-1.832v-12.714a1.832,1.832,0,0,1,1.832-1.832H523.6a1.831,1.831,0,0,1,1.832,1.832v12.714a1.831,1.831,0,0,1-1.832,1.832" transform="translate(-411.157 334.269)" fill="none"/>
        <path id="path70" d="M519.5-183.7h-61.17a1.831,1.831,0,0,1-1.832-1.832,1.831,1.831,0,0,1,1.832-1.832H519.5a1.833,1.833,0,0,1,1.832,1.832A1.833,1.833,0,0,1,519.5-183.7" transform="translate(-437.312 334.637)" fill="#a8c4ff"/>
        <path id="path72" d="M519.5-176.742h-61.17a1.833,1.833,0,0,1-1.832-1.832,1.831,1.831,0,0,1,1.832-1.832H519.5a1.833,1.833,0,0,1,1.832,1.832,1.834,1.834,0,0,1-1.832,1.832" transform="translate(-437.312 338.24)" fill="#a8c4ff"/>
        <path id="path74" d="M496.116-258.686H461.17a2.748,2.748,0,0,1-2.747-2.747,2.747,2.747,0,0,1,2.747-2.747h34.946a2.745,2.745,0,0,1,2.747,2.747,2.747,2.747,0,0,1-2.747,2.747" transform="translate(-436.314 294.832)" fill="#e7eefd"/>
      </g>
      <g id="Group_1528" data-name="Group 1528" transform="translate(-1567.926 5865.703)">
        <path id="path76" d="M285.242-102.636H136.862a15.1,15.1,0,0,1-15.1-15.1V-266.113a15.1,15.1,0,0,1,15.1-15.095H285.242a15.1,15.1,0,0,1,15.1,15.095v148.381a15.1,15.1,0,0,1-15.1,15.1" transform="translate(-119.933 283.039)" fill="#a8c4ff"/>
        <path id="path78" d="M137.958-278.752a13.751,13.751,0,0,0-13.736,13.736v147.437a13.751,13.751,0,0,0,13.736,13.736H285.4a13.751,13.751,0,0,0,13.736-13.736V-265.016A13.751,13.751,0,0,0,285.4-278.752ZM285.4-100.179H137.958a17.42,17.42,0,0,1-17.4-17.4V-265.016a17.419,17.419,0,0,1,17.4-17.4H285.4a17.419,17.419,0,0,1,17.4,17.4v147.437a17.419,17.419,0,0,1-17.4,17.4" transform="translate(-120.559 282.414)" fill="none"/>
        <path id="path80" d="M239.387-228.775h-38.9a5.733,5.733,0,0,1-5.733-5.733h0a5.731,5.731,0,0,1,5.733-5.73h38.9a5.731,5.731,0,0,1,5.733,5.73h0a5.733,5.733,0,0,1-5.733,5.733" transform="translate(-82.114 304.268)" fill="#e7eefd"/>
        <path id="path82" d="M201.111-237.783a3.905,3.905,0,0,0-3.9,3.9,3.9,3.9,0,0,0,3.9,3.9h38.9a3.9,3.9,0,0,0,3.9-3.9,3.905,3.905,0,0,0-3.9-3.9Zm38.9,11.465h-38.9a7.572,7.572,0,0,1-7.564-7.564,7.572,7.572,0,0,1,7.564-7.562h38.9a7.571,7.571,0,0,1,7.564,7.562,7.572,7.572,0,0,1-7.564,7.564" transform="translate(-82.739 303.643)" fill="none"/>
        <path id="path84" d="M239.387-214.706h-38.9a5.733,5.733,0,0,1-5.733-5.733h0a5.733,5.733,0,0,1,5.733-5.733h38.9a5.733,5.733,0,0,1,5.733,5.733h0a5.733,5.733,0,0,1-5.733,5.733" transform="translate(-82.114 311.557)" fill="#e7eefd"/>
        <path id="path86" d="M201.111-223.714a3.9,3.9,0,0,0-3.9,3.9,3.905,3.905,0,0,0,3.9,3.9h38.9a3.905,3.905,0,0,0,3.9-3.9,3.9,3.9,0,0,0-3.9-3.9Zm38.9,11.463h-38.9a7.572,7.572,0,0,1-7.564-7.562,7.572,7.572,0,0,1,7.564-7.564h38.9a7.572,7.572,0,0,1,7.564,7.564,7.571,7.571,0,0,1-7.564,7.562" transform="translate(-82.739 310.931)" fill="none"/>
        <path id="path88" d="M239.387-200.64h-38.9a5.733,5.733,0,0,1-5.733-5.733h0a5.731,5.731,0,0,1,5.733-5.731h38.9a5.731,5.731,0,0,1,5.733,5.731h0a5.733,5.733,0,0,1-5.733,5.733" transform="translate(-82.114 318.846)" fill="#e7eefd"/>
        <path id="path90" d="M201.111-209.648a3.905,3.905,0,0,0-3.9,3.9,3.9,3.9,0,0,0,3.9,3.9h38.9a3.9,3.9,0,0,0,3.9-3.9,3.905,3.905,0,0,0-3.9-3.9Zm38.9,11.465h-38.9a7.572,7.572,0,0,1-7.564-7.564,7.572,7.572,0,0,1,7.564-7.562h38.9a7.571,7.571,0,0,1,7.564,7.562,7.572,7.572,0,0,1-7.564,7.564" transform="translate(-82.739 318.221)" fill="none"/>
        <path id="path92" d="M202.767-189.887A32.507,32.507,0,0,1,170.26-157.38a32.508,32.508,0,0,1-32.509-32.507A32.508,32.508,0,0,1,170.26-222.4a32.508,32.508,0,0,1,32.507,32.509" transform="translate(-111.65 313.513)" fill="#e7eefd"/>
        <path id="path92-2" data-name="path92" d="M178.194-202.174a20.221,20.221,0,0,1-20.22,20.22,20.221,20.221,0,0,1-20.222-20.22A20.221,20.221,0,0,1,157.973-222.4a20.221,20.221,0,0,1,20.22,20.222" transform="translate(-99.363 325.8)" fill="#a8c4ff"/>
        <path id="path94" d="M170.886-219.938a30.71,30.71,0,0,0-30.677,30.675,30.71,30.71,0,0,0,30.677,30.677,30.712,30.712,0,0,0,30.677-30.677A30.711,30.711,0,0,0,170.886-219.938Zm0,65.016a34.378,34.378,0,0,1-34.341-34.341A34.378,34.378,0,0,1,170.886-223.6a34.378,34.378,0,0,1,34.339,34.339,34.378,34.378,0,0,1-34.339,34.341" transform="translate(-112.275 312.888)" fill="none"/>
        <path id="path96" d="M165.255-209.072a14.194,14.194,0,0,0-14.18,14.178,14.2,14.2,0,0,0,14.18,14.18,14.2,14.2,0,0,0,14.18-14.18A14.2,14.2,0,0,0,165.255-209.072Zm0,32.021a17.863,17.863,0,0,1-17.843-17.843,17.862,17.862,0,0,1,17.843-17.841A17.862,17.862,0,0,1,183.1-194.894a17.862,17.862,0,0,1-17.841,17.843" transform="translate(-106.644 318.519)" fill="none"/>
        <path id="path98" d="M122.391-200.615a1.832,1.832,0,0,1-1.832-1.832,1.833,1.833,0,0,1,1.832-1.832,11.918,11.918,0,0,0,11.9-11.9v-34.578a11.92,11.92,0,0,0-11.9-11.906,1.832,1.832,0,0,1-1.832-1.83,1.832,1.832,0,0,1,1.832-1.832,15.585,15.585,0,0,1,15.567,15.568v34.578a15.585,15.585,0,0,1-15.567,15.568" transform="translate(-118.558 290.749)" fill="#7598e3"/>
        <path id="path100" d="M146.6-148.93h0a8.25,8.25,0,0,1-8.249-8.249v-6.4h16.5v6.4a8.249,8.249,0,0,1-8.249,8.249" transform="translate(-111.34 343.987)" fill="#7ba0ed"/>
        <path id="path102" d="M140.805-161.126v4.573a6.424,6.424,0,0,0,6.417,6.417,6.424,6.424,0,0,0,6.419-6.417v-4.573Zm6.417,14.651a10.091,10.091,0,0,1-10.079-10.079v-6.4a1.831,1.831,0,0,1,1.83-1.832h16.5a1.831,1.831,0,0,1,1.832,1.832v6.4a10.091,10.091,0,0,1-10.081,10.079" transform="translate(-111.965 343.362)" fill="none"/>
        <path id="path108" d="M203.839-264.744H144.571a2.747,2.747,0,0,1-2.747-2.747,2.748,2.748,0,0,1,2.747-2.747h59.269a2.748,2.748,0,0,1,2.747,2.747,2.747,2.747,0,0,1-2.747,2.747" transform="translate(-109.54 288.723)" fill="#e7eefd"/>
        <path id="path110" d="M183.54-251.892H148.594a2.748,2.748,0,0,1-2.749-2.747,2.749,2.749,0,0,1,2.749-2.749H183.54a2.748,2.748,0,0,1,2.747,2.749,2.748,2.748,0,0,1-2.747,2.747" transform="translate(-107.456 295.382)" fill="#e7eefd"/>
        <path id="path112" d="M176.018-167.228H141.072a2.747,2.747,0,0,1-2.747-2.747,2.747,2.747,0,0,1,2.747-2.749h34.946a2.748,2.748,0,0,1,2.747,2.749,2.748,2.748,0,0,1-2.747,2.747" transform="translate(-111.353 339.251)" fill="#e7eefd"/>
        <path id="path478" d="M144.083-188.442a2.747,2.747,0,0,1-2.749-2.747,28.586,28.586,0,0,1,28.554-28.553A2.747,2.747,0,0,1,172.635-217a2.747,2.747,0,0,1-2.747,2.749,23.084,23.084,0,0,0-23.058,23.058,2.747,2.747,0,0,1-2.747,2.747" transform="translate(-109.793 314.888)" fill="#f2f2f0"/>
        <path id="path104" d="M220.187-148.93h0a8.25,8.25,0,0,1-8.249-8.249v-6.4h16.5v6.4a8.249,8.249,0,0,1-8.249,8.249" transform="translate(-73.209 343.987)" fill="#2f3e53"/>
        <path id="path106" d="M214.4-161.126v4.573a6.424,6.424,0,0,0,6.417,6.417,6.426,6.426,0,0,0,6.419-6.417v-4.573Zm6.417,14.651a10.091,10.091,0,0,1-10.081-10.079v-6.4a1.833,1.833,0,0,1,1.832-1.832h16.5a1.831,1.831,0,0,1,1.832,1.832v6.4a10.091,10.091,0,0,1-10.081,10.079" transform="translate(-73.834 343.362)" fill="#171717"/>
      </g>
      <g id="Group_1525" data-name="Group 1525" transform="translate(-1675.206 6007.632)">
        <path id="path114" d="M93.013-159.148H68.9v-5.5H93.013v5.5" transform="translate(-40.047 201.508)" fill="#f8b838"/>
        <path id="path116" d="M87.467-159.148H73.12v-5.5H87.467v5.5" transform="translate(-37.859 201.508)" fill="#efa417"/>
        <path id="path118" d="M77-158.534a.457.457,0,0,1-.458-.457v-5.5a.457.457,0,0,1,.458-.457.457.457,0,0,1,.458.457v5.5a.457.457,0,0,1-.458.457" transform="translate(-36.088 201.352)" fill="#edcc7f"/>
        <path id="path120" d="M78-158.534a.457.457,0,0,1-.458-.457v-5.5a.457.457,0,0,1,.458-.457.457.457,0,0,1,.458.457v5.5a.457.457,0,0,1-.458.457" transform="translate(-35.567 201.352)" fill="#edcc7f"/>
        <path id="path122" d="M79.459-158.534a.457.457,0,0,1-.458-.457v-5.5a.457.457,0,0,1,.458-.457.457.457,0,0,1,.458.457v5.5a.457.457,0,0,1-.458.457" transform="translate(-34.812 201.352)" fill="#edcc7f"/>
        <path id="path124" d="M93.792-148.291H69.677v-5.494H93.792v5.494" transform="translate(-39.644 207.135)" fill="#f8b838"/>
        <path id="path126" d="M87.282-148.291H75.759v-5.494H87.282v5.494" transform="translate(-36.492 207.135)" fill="#efa417"/>
        <path id="path128" d="M77.775-147.677a.457.457,0,0,1-.458-.457v-5.494a.458.458,0,0,1,.458-.459.458.458,0,0,1,.458.459v5.494a.457.457,0,0,1-.458.457" transform="translate(-35.684 206.978)" fill="#edcc7f"/>
        <path id="path130" d="M78.781-147.677a.457.457,0,0,1-.458-.457v-5.494a.458.458,0,0,1,.458-.459.458.458,0,0,1,.458.459v5.494a.457.457,0,0,1-.458.457" transform="translate(-35.164 206.978)" fill="#edcc7f"/>
        <path id="path132" d="M80.238-147.677a.457.457,0,0,1-.458-.457v-5.494a.458.458,0,0,1,.458-.459.458.458,0,0,1,.459.459v5.494a.458.458,0,0,1-.459.457" transform="translate(-34.408 206.978)" fill="#edcc7f"/>
        <path id="path134" d="M81.947-147.677a.457.457,0,0,1-.458-.457v-5.494a.458.458,0,0,1,.458-.459.458.458,0,0,1,.458.459v5.494a.457.457,0,0,1-.458.457" transform="translate(-33.523 206.978)" fill="#edcc7f"/>
        <path id="path136" d="M93.993-155.53H69.878v-5.494H93.993v5.494" transform="translate(-39.539 203.384)" fill="#f8b838"/>
        <path id="path138" d="M87.379-155.53H76.161v-5.494H87.379v5.494" transform="translate(-36.284 203.384)" fill="#efa417"/>
        <path id="path140" d="M79.183-154.916a.457.457,0,0,1-.458-.457v-5.494a.459.459,0,0,1,.458-.46.46.46,0,0,1,.459.46v5.494a.458.458,0,0,1-.459.457" transform="translate(-34.955 203.227)" fill="#edcc7f"/>
        <path id="path142" d="M80.189-154.916a.457.457,0,0,1-.458-.457v-5.494a.459.459,0,0,1,.458-.46.459.459,0,0,1,.458.46v5.494a.457.457,0,0,1-.458.457" transform="translate(-34.434 203.227)" fill="#edcc7f"/>
        <path id="path144" d="M93.013-151.909H68.9v-5.5H93.013v5.5" transform="translate(-40.047 205.259)" fill="#f8b838"/>
        <path id="path146" d="M82.584-151.909h-7.4v-5.5h7.4v5.5" transform="translate(-36.792 205.259)" fill="#efa417"/>
        <path id="path148" d="M78.2-151.3a.457.457,0,0,1-.458-.458v-5.5a.457.457,0,0,1,.458-.457.457.457,0,0,1,.458.457v5.5a.457.457,0,0,1-.458.458" transform="translate(-35.463 205.103)" fill="#edcc7f"/>
        <path id="path150" d="M68.408-168.262H92.523v5.494H68.408v-5.494" transform="translate(-40.301 199.633)" fill="#f8b838"/>
        <path id="path152" d="M70.619-168.262H81.838v5.494H70.619v-5.494" transform="translate(-39.155 199.633)" fill="#efa417"/>
        <path id="path154" d="M75.3-162.155a.457.457,0,0,1-.458-.457v-5.494a.457.457,0,0,1,.458-.457.457.457,0,0,1,.458.457v5.494a.457.457,0,0,1-.458.457" transform="translate(-36.968 199.477)" fill="#edcc7f"/>
        <path id="path156" d="M74.293-162.155a.457.457,0,0,1-.458-.457v-5.494a.457.457,0,0,1,.458-.457.458.458,0,0,1,.459.457v5.494a.458.458,0,0,1-.459.457" transform="translate(-37.489 199.477)" fill="#edcc7f"/>
        <path id="path158" d="M69.878-171.882H93.993v5.5H69.878v-5.5" transform="translate(-39.539 197.758)" fill="#f8b838"/>
        <path id="path160" d="M74.6-171.882h7.4v5.5H74.6v-5.5" transform="translate(-37.091 197.758)" fill="#efa417"/>
        <path id="path162" d="M76.769-165.773a.457.457,0,0,1-.458-.457v-5.5a.457.457,0,0,1,.458-.457.457.457,0,0,1,.458.457v5.5a.457.457,0,0,1-.458.457" transform="translate(-36.206 197.602)" fill="#edcc7f"/>
        <path id="path164" d="M51.3-161.024H75.416v5.494H51.3v-5.494" transform="translate(-49.165 203.384)" fill="#f8b838"/>
        <path id="path166" d="M53.513-161.024H65.036v5.494H53.513v-5.494" transform="translate(-48.019 203.384)" fill="#efa417"/>
        <path id="path168" d="M59.4-154.916a.457.457,0,0,1-.458-.457v-5.494a.459.459,0,0,1,.458-.46.459.459,0,0,1,.458.46v5.494a.457.457,0,0,1-.458.457" transform="translate(-45.206 203.227)" fill="#edcc7f"/>
        <path id="path170" d="M58.395-154.916a.457.457,0,0,1-.458-.457v-5.494a.459.459,0,0,1,.458-.46.459.459,0,0,1,.458.46v5.494a.457.457,0,0,1-.458.457" transform="translate(-45.727 203.227)" fill="#edcc7f"/>
        <path id="path172" d="M56.937-154.916a.457.457,0,0,1-.458-.457v-5.494a.459.459,0,0,1,.458-.46.459.459,0,0,1,.458.46v5.494a.457.457,0,0,1-.458.457" transform="translate(-46.482 203.227)" fill="#edcc7f"/>
        <path id="path174" d="M55.228-154.916a.457.457,0,0,1-.458-.457v-5.494a.459.459,0,0,1,.458-.46.459.459,0,0,1,.458.46v5.494a.457.457,0,0,1-.458.457" transform="translate(-47.368 203.227)" fill="#edcc7f"/>
        <path id="path176" d="M51.1-153.785H75.215v5.494H51.1v-5.494" transform="translate(-49.269 207.135)" fill="#f8b838"/>
        <path id="path178" d="M53.312-153.785H64.53v5.494H53.312v-5.494" transform="translate(-48.123 207.135)" fill="#efa417"/>
        <path id="path180" d="M57.992-147.677a.457.457,0,0,1-.458-.457v-5.494a.458.458,0,0,1,.458-.459.458.458,0,0,1,.458.459v5.494a.457.457,0,0,1-.458.457" transform="translate(-45.936 206.978)" fill="#edcc7f"/>
        <path id="path182" d="M56.986-147.677a.457.457,0,0,1-.458-.457v-5.494a.458.458,0,0,1,.458-.459.458.458,0,0,1,.458.459v5.494a.457.457,0,0,1-.458.457" transform="translate(-46.456 206.978)" fill="#edcc7f"/>
        <path id="path184" d="M52.081-157.4H76.2v5.5H52.081v-5.5" transform="translate(-48.761 205.259)" fill="#f8b838"/>
        <path id="path186" d="M56.806-157.4h7.4v5.5h-7.4v-5.5" transform="translate(-46.313 205.259)" fill="#efa417"/>
        <path id="path188" d="M58.972-151.3a.457.457,0,0,1-.458-.458v-5.5a.457.457,0,0,1,.458-.457.458.458,0,0,1,.459.457v5.5a.458.458,0,0,1-.459.458" transform="translate(-45.428 205.103)" fill="#edcc7f"/>
        <path id="path190" d="M96.329-174.732A11.931,11.931,0,0,1,84.4-162.8a11.931,11.931,0,0,1-11.932-11.931A11.931,11.931,0,0,1,84.4-186.662a11.931,11.931,0,0,1,11.931,11.931" transform="translate(-38.198 190.099)" fill="#f8b838"/>
        <path id="path192" d="M83.639-184.283a8.8,8.8,0,0,0-8.793,8.793,8.8,8.8,0,0,0,8.793,8.793,8.8,8.8,0,0,0,8.792-8.793A8.8,8.8,0,0,0,83.639-184.283Zm0,18.5a9.72,9.72,0,0,1-9.708-9.708,9.72,9.72,0,0,1,9.708-9.708,9.72,9.72,0,0,1,9.708,9.708,9.72,9.72,0,0,1-9.708,9.708" transform="translate(-37.439 190.858)" fill="#edcc7f"/>
        <path id="path194" d="M82.987-174.842a.773.773,0,0,0-.155-.494,1.4,1.4,0,0,0-.564-.366v1.735A.879.879,0,0,0,82.987-174.842Zm-2.213-5.133a.784.784,0,0,0-.606.775.928.928,0,0,0,.606.86Zm0,8.953v-1.028A6.116,6.116,0,0,1,78.346-173a1.015,1.015,0,0,1-.2-1.49h0a1.018,1.018,0,0,1,1.36-.2,4.476,4.476,0,0,0,1.266.656v-2.1a5.027,5.027,0,0,1-2.172-1.022,2.4,2.4,0,0,1-.691-1.848A2.681,2.681,0,0,1,78.7-181a3.427,3.427,0,0,1,2.073-.937v-.69h1.494v.719a5.87,5.87,0,0,1,1.793.567,1.011,1.011,0,0,1,.4,1.484h0a.989.989,0,0,1-1.28.318,4.465,4.465,0,0,0-.913-.381v2.03a5.287,5.287,0,0,1,2.249,1.059,2.41,2.41,0,0,1,.727,1.874,2.672,2.672,0,0,1-.811,2,3.581,3.581,0,0,1-2.164.945v.986H80.774" transform="translate(-35.378 192.191)" fill="#fff"/>
        <path id="path196" d="M72.791-140.121H93.243v-1.949a1.833,1.833,0,0,1-1.183-1.712v-5.5a1.833,1.833,0,0,1,1.489-1.8v-1.895a1.835,1.835,0,0,1-1.489-1.8v-4.022a1.825,1.825,0,0,1-.744-1.474v-5.494a1.832,1.832,0,0,1,1.832-1.832h.4v-1.832H73.1v3.664a1.831,1.831,0,0,1-1.831,1.832h-.4v2.188a1.83,1.83,0,0,1,.744,1.474v3.7a1.831,1.831,0,0,1,1.488,1.8v5.494a1.831,1.831,0,0,1-1.488,1.8v1.982a1.833,1.833,0,0,1,1.183,1.715Zm22.284,3.664H70.959a1.831,1.831,0,0,1-1.831-1.832v-3.781a1.832,1.832,0,0,1-1.183-1.712v-5.5a1.833,1.833,0,0,1,1.488-1.8v-1.895a1.835,1.835,0,0,1-1.488-1.8v-4.022a1.826,1.826,0,0,1-.744-1.474v-5.494a1.832,1.832,0,0,1,1.832-1.832h.4v-3.664a1.832,1.832,0,0,1,1.832-1.83H95.38a1.831,1.831,0,0,1,1.831,1.83v5.5a1.831,1.831,0,0,1-1.831,1.832h-.4v2.188a1.83,1.83,0,0,1,.744,1.474v3.7a1.831,1.831,0,0,1,1.488,1.8v5.494a1.831,1.831,0,0,1-1.488,1.8v1.982a1.833,1.833,0,0,1,1.183,1.715v5.494a1.831,1.831,0,0,1-1.831,1.832" transform="translate(-40.926 197.133)" fill="none"/>
        <path id="path198" d="M53.557-145.747H74.009v-3.662a1.831,1.831,0,0,1,1.488-1.8v-1.982a1.835,1.835,0,0,1-1.183-1.714v-3.664H53.863v1.951a1.83,1.83,0,0,1,1.182,1.712v5.5a1.83,1.83,0,0,1-1.488,1.8Zm22.284,3.664H51.725a1.831,1.831,0,0,1-1.831-1.832v-5.494a1.831,1.831,0,0,1,1.488-1.8v-1.982A1.834,1.834,0,0,1,50.2-154.9V-160.4a1.831,1.831,0,0,1,1.831-1.832H76.146a1.831,1.831,0,0,1,1.832,1.832v3.781A1.83,1.83,0,0,1,79.16-154.9v5.5a1.83,1.83,0,0,1-1.487,1.8v3.7a1.832,1.832,0,0,1-1.832,1.832" transform="translate(-49.894 202.759)" fill="none"/>
        <path id="path200" d="M85.551-185.262a10.111,10.111,0,0,0-10.1,10.1,10.111,10.111,0,0,0,10.1,10.1,10.111,10.111,0,0,0,10.1-10.1A10.111,10.111,0,0,0,85.551-185.262Zm0,23.863a13.778,13.778,0,0,1-13.762-13.763,13.78,13.78,0,0,1,13.762-13.765,13.78,13.78,0,0,1,13.763,13.765A13.778,13.778,0,0,1,85.551-161.4" transform="translate(-38.549 188.926)" fill="none"/>
      </g>
      <g id="Group_1527" data-name="Group 1527" transform="translate(-1467.108 5890.813)">
        <path id="path202" d="M460.363-141.9H203.5a15.309,15.309,0,0,1-12.447-24.222H472.808A15.308,15.308,0,0,1,460.363-141.9" transform="translate(-186.347 317.559)" fill="#7ba0ed"/>
        <path id="path204" d="M192.65-163.671a13.227,13.227,0,0,0-.518,13.242,13.251,13.251,0,0,0,11.985,7.318H460.983a13.252,13.252,0,0,0,11.987-7.318,13.232,13.232,0,0,0-.52-13.242Zm268.333,24.224H204.117a17.072,17.072,0,0,1-15.244-9.307,17.071,17.071,0,0,1,1.312-17.813,1.833,1.833,0,0,1,1.488-.765H473.428a1.83,1.83,0,0,1,1.488.765,17.071,17.071,0,0,1,1.312,17.813,17.072,17.072,0,0,1-15.244,9.307" transform="translate(-186.967 316.934)" fill="none"/>
        <path id="path206" d="M430.547-115.066H210.336v-128.77a20.831,20.831,0,0,1,20.831-20.831H409.716a20.83,20.83,0,0,1,20.831,20.831v128.77" transform="translate(-174.858 266.499)" fill="#7598e3"/>
        <path id="path208" d="M212.793-116.273H429.34V-242.8a19.433,19.433,0,0,0-19.41-19.41H232.2a19.434,19.434,0,0,0-19.412,19.41Zm218.38,3.662H210.961a1.831,1.831,0,0,1-1.832-1.83V-242.8A23.1,23.1,0,0,1,232.2-265.874H409.93A23.1,23.1,0,0,1,433-242.8v128.359a1.831,1.831,0,0,1-1.832,1.83" transform="translate(-175.484 265.874)" fill="none"/>
        <path id="path210" d="M215.765-126.121V-246.143a13.1,13.1,0,0,1,13.095-13.1H406.4a13.1,13.1,0,0,1,13.095,13.1v120.021H215.765" transform="translate(-172.045 269.312)" fill="#a8c4ff"/>
        <path id="path212" d="M218.222-127.329H418.287V-245.613a11.184,11.184,0,0,0-11.17-11.17H229.39a11.182,11.182,0,0,0-11.168,11.17Zm201.895,3.664H216.39a1.833,1.833,0,0,1-1.832-1.832V-245.613a14.848,14.848,0,0,1,14.831-14.831H407.117a14.848,14.848,0,0,1,14.831,14.831V-125.5a1.833,1.833,0,0,1-1.832,1.832" transform="translate(-172.67 268.687)" fill="none"/>
        <path id="path214" d="M248.118-198.744l4.208-21.013a21.5,21.5,0,0,0-4.208-.417,21.43,21.43,0,0,0-21.43,21.43,21.432,21.432,0,0,0,21.43,21.432,21.434,21.434,0,0,0,21.432-21.432,21.517,21.517,0,0,0-.419-4.208l-21.013,4.208" transform="translate(-166.385 289.554)" fill="#7ba0ed"/>
        <path id="path216" d="M248.743-217.719a19.623,19.623,0,0,0-19.6,19.6,19.623,19.623,0,0,0,19.6,19.6,19.623,19.623,0,0,0,19.6-19.6,19.669,19.669,0,0,0-.107-2.036L249.1-196.323a1.826,1.826,0,0,1-1.656-.5,1.835,1.835,0,0,1-.5-1.656l3.832-19.131a19.133,19.133,0,0,0-2.036-.109Zm0,42.863a23.288,23.288,0,0,1-23.262-23.262,23.288,23.288,0,0,1,23.262-23.262,23.4,23.4,0,0,1,4.567.453,1.839,1.839,0,0,1,1.166.779,1.827,1.827,0,0,1,.271,1.376l-3.668,18.317,18.317-3.668a1.837,1.837,0,0,1,1.376.271,1.831,1.831,0,0,1,.779,1.166,23.37,23.37,0,0,1,.453,4.567,23.288,23.288,0,0,1-23.262,23.262" transform="translate(-167.011 288.929)" fill="none"/>
        <path id="path218" d="M266.015-207.293a21.452,21.452,0,0,0-16.8-16.8L245-203.085l21.013-4.208" transform="translate(-156.895 287.521)" fill="none"/>
        <path id="path220" d="M245.627-200.628a1.833,1.833,0,0,1-1.3-.536,1.827,1.827,0,0,1-.5-1.654l4.208-21.013a1.829,1.829,0,0,1,2.154-1.437,23.16,23.16,0,0,1,18.242,18.242A1.831,1.831,0,0,1,267-204.873l-21.013,4.208a1.813,1.813,0,0,1-.36.036" transform="translate(-157.521 286.896)" fill="#fac57b"/>
        <path id="path222" d="M264.9-243.242H229.9a1.832,1.832,0,0,1-1.83-1.832,1.831,1.831,0,0,1,1.83-1.832H264.9a1.831,1.831,0,0,1,1.832,1.832,1.833,1.833,0,0,1-1.832,1.832" transform="translate(-165.668 275.702)" fill="#e7eefd"/>
        <path id="path224" d="M269.56-232.373H227.614a1.833,1.833,0,0,1-1.832-1.832,1.834,1.834,0,0,1,1.832-1.832H269.56a1.833,1.833,0,0,1,1.832,1.832,1.831,1.831,0,0,1-1.832,1.832" transform="translate(-166.854 281.335)" fill="#e7eefd"/>
        <path id="path226" d="M377.252-144.773H277.5a1.831,1.831,0,0,1-1.832-1.832V-239.64a1.831,1.831,0,0,1,1.832-1.832,1.833,1.833,0,0,1,1.832,1.832v91.2h97.925a1.831,1.831,0,0,1,1.832,1.832,1.831,1.831,0,0,1-1.832,1.832" transform="translate(-141.008 278.518)" fill="#e7eefd"/>
        <path id="path228" d="M302.955-161.6h-18.4v-50.941h18.4V-161.6" transform="translate(-136.398 293.511)" fill="#7ba0ed"/>
        <path id="path230" d="M287.016-162.8h14.732v-47.277H287.016Zm16.564,3.664h-18.4a1.831,1.831,0,0,1-1.832-1.832v-50.941a1.833,1.833,0,0,1,1.832-1.832h18.4a1.832,1.832,0,0,1,1.83,1.832v50.941a1.831,1.831,0,0,1-1.83,1.832" transform="translate(-137.024 292.885)" fill="none"/>
        <path id="path232" d="M322.062-166.427h-18.4v-36.79h18.4v36.79" transform="translate(-126.498 298.34)" fill="#fac57b"/>
        <path id="path234" d="M306.122-167.633h14.732v-33.128H306.122Zm16.564,3.664h-18.4a1.831,1.831,0,0,1-1.83-1.832v-36.79a1.831,1.831,0,0,1,1.83-1.832h18.4a1.832,1.832,0,0,1,1.832,1.832v36.79a1.831,1.831,0,0,1-1.832,1.832" transform="translate(-127.123 297.715)" fill="none"/>
        <path id="path236" d="M341.168-155.607H322.774V-224.1h18.394v68.491" transform="translate(-116.597 287.521)" fill="#e7eefd"/>
        <path id="path238" d="M325.231-156.814h14.732v-64.827H325.231Zm16.562,3.664H323.4a1.831,1.831,0,0,1-1.832-1.832v-68.491a1.831,1.831,0,0,1,1.832-1.83h18.394a1.831,1.831,0,0,1,1.832,1.83v68.491a1.831,1.831,0,0,1-1.832,1.832" transform="translate(-117.222 286.896)" fill="none"/>
        <path id="path240" d="M283.728-201.161a1.83,1.83,0,0,1-1.593-.925,1.831,1.831,0,0,1,.684-2.5L307.581-218.7a1.832,1.832,0,0,1,2.38.506l9.089,12.333,32.525-35.027a1.833,1.833,0,0,1,2.589-.1,1.833,1.833,0,0,1,.1,2.589l-34.031,36.646a1.832,1.832,0,0,1-1.445.583,1.837,1.837,0,0,1-1.37-.743l-9.435-12.8L284.633-201.4a1.81,1.81,0,0,1-.9.241" transform="translate(-137.78 278.519)" fill="#e7eefd"/>
        <path id="path242" d="M333.527-225.428a1.831,1.831,0,0,1-1.83-1.832v-10.548h-10.55a1.831,1.831,0,0,1-1.832-1.832,1.831,1.831,0,0,1,1.832-1.832h12.38a1.831,1.831,0,0,1,1.832,1.832v12.38a1.831,1.831,0,0,1-1.832,1.832" transform="translate(-118.389 278.518)" fill="#e7eefd"/>
        <path id="path244" d="M281.245-185.128H270.259a1.831,1.831,0,0,1-1.832-1.832,1.831,1.831,0,0,1,1.832-1.832h10.985a1.833,1.833,0,0,1,1.832,1.832,1.833,1.833,0,0,1-1.832,1.832" transform="translate(-144.757 305.815)" fill="#e7eefd"/>
        <path id="path246" d="M281.245-196.84H270.259a1.833,1.833,0,0,1-1.832-1.832,1.831,1.831,0,0,1,1.832-1.832h10.985a1.833,1.833,0,0,1,1.832,1.832,1.834,1.834,0,0,1-1.832,1.832" transform="translate(-144.757 299.746)" fill="#e7eefd"/>
        <path id="path248" d="M281.245-208.554H270.259a1.831,1.831,0,0,1-1.832-1.83,1.831,1.831,0,0,1,1.832-1.832h10.985a1.833,1.833,0,0,1,1.832,1.832,1.832,1.832,0,0,1-1.832,1.83" transform="translate(-144.757 293.678)" fill="#e7eefd"/>
        <path id="path250" d="M281.245-220.266H270.259a1.831,1.831,0,0,1-1.832-1.832,1.831,1.831,0,0,1,1.832-1.83h10.985a1.832,1.832,0,0,1,1.832,1.83,1.833,1.833,0,0,1-1.832,1.832" transform="translate(-144.757 287.609)" fill="#e7eefd"/>
        <path id="path252" d="M281.245-231.978H270.259a1.831,1.831,0,0,1-1.832-1.832,1.831,1.831,0,0,1,1.832-1.83h10.985a1.832,1.832,0,0,1,1.832,1.83,1.833,1.833,0,0,1-1.832,1.832" transform="translate(-144.757 281.54)" fill="#e7eefd"/>
        <path id="path254" d="M303.243-159.392H273.785a1.831,1.831,0,0,1-1.832-1.832,1.831,1.831,0,0,1,1.832-1.83h29.458a1.831,1.831,0,0,1,1.832,1.83,1.831,1.831,0,0,1-1.832,1.832" transform="translate(-142.931 319.151)" fill="#fff"/>
        <path id="path256" d="M390.452-152.25H309A2.745,2.745,0,0,1,306.257-155,2.747,2.747,0,0,1,309-157.744h81.448A2.748,2.748,0,0,1,393.2-155a2.747,2.747,0,0,1-2.747,2.747" transform="translate(-125.156 321.903)" fill="#f2f2f0"/>
      </g>
      <g id="Group_1537" data-name="Group 1537" transform="translate(-1267.635 5816.623)">
        <path id="path258" d="M319.563-298.59a14.949,14.949,0,0,1,14.949-14.947h28.07v74.191H319.563V-298.59" transform="translate(-317.733 315.368)" fill="#a8c4ff"/>
        <path id="path260" d="M322.02-240.552h39.357v-70.529h-26.24a13.132,13.132,0,0,0-13.117,13.117Zm41.189,3.664h-43.02a1.831,1.831,0,0,1-1.83-1.832v-59.245a16.8,16.8,0,0,1,16.779-16.779h28.072a1.831,1.831,0,0,1,1.83,1.832v74.191a1.831,1.831,0,0,1-1.83,1.832" transform="translate(-318.358 314.743)" fill="none"/>
        <path id="path262" d="M358.455-142.331a14.947,14.947,0,0,1-14.947-14.949l.249-141.31a14.947,14.947,0,0,0-14.949-14.947H421.92a14.947,14.947,0,0,1,14.949,14.947v156.259H358.455" transform="translate(-312.943 315.368)" fill="#e7eefd"/>
        <path id="path264" d="M339.887-311.081a16.758,16.758,0,0,1,6.328,13.117l-.249,141.314a13.129,13.129,0,0,0,13.115,13.113h76.582V-297.965a13.132,13.132,0,0,0-13.117-13.117Zm97.607,171.206H359.08A16.8,16.8,0,0,1,342.3-156.655l.249-141.312a13.132,13.132,0,0,0-13.117-13.115,1.831,1.831,0,0,1-1.832-1.83,1.831,1.831,0,0,1,1.832-1.832h93.112a16.8,16.8,0,0,1,16.781,16.779v156.259a1.831,1.831,0,0,1-1.832,1.83" transform="translate(-313.568 314.743)" fill="none"/>
        <path id="path266" d="M405.715-166.571V-266.757h-28.07A14.949,14.949,0,0,0,362.7-251.81v70.291a14.947,14.947,0,0,1-14.947,14.949h57.965" transform="translate(-303.128 339.608)" fill="#a8c4ff"/>
        <path id="path268" d="M358.828-167.777H404.51V-264.3h-26.24a13.132,13.132,0,0,0-13.117,13.117v70.291a16.754,16.754,0,0,1-6.326,13.117Zm47.514,3.662H348.375a1.831,1.831,0,0,1-1.832-1.83,1.831,1.831,0,0,1,1.832-1.832,13.132,13.132,0,0,0,13.117-13.117v-70.291a16.8,16.8,0,0,1,16.779-16.779h28.072a1.831,1.831,0,0,1,1.83,1.832v100.186a1.831,1.831,0,0,1-1.83,1.83" transform="translate(-303.753 338.983)" fill="none"/>
        <path id="path270" d="M366.69-266.757a14.947,14.947,0,0,1,14.949,14.947v147.1a14.947,14.947,0,0,0,14.949,14.947H474.75V-251.81A14.947,14.947,0,0,0,459.8-266.757H366.69" transform="translate(-293.314 339.608)" fill="#e7eefd"/>
        <path id="path272" d="M377.769-264.3a16.763,16.763,0,0,1,6.326,13.117v147.1a13.131,13.131,0,0,0,13.117,13.117h76.331V-251.185A13.131,13.131,0,0,0,460.426-264.3Zm97.605,177H397.212a16.8,16.8,0,0,1-16.781-16.781v-147.1A13.132,13.132,0,0,0,367.314-264.3a1.831,1.831,0,0,1-1.83-1.83,1.831,1.831,0,0,1,1.83-1.832h93.111a16.8,16.8,0,0,1,16.781,16.779V-89.137a1.831,1.831,0,0,1-1.832,1.832" transform="translate(-293.939 338.983)" fill="none"/>
        <path id="path274" d="M493.991-165.354v8.1A14.947,14.947,0,0,1,479.045-142.3H385.931a14.947,14.947,0,0,0,14.949-14.947v-8.1h93.112" transform="translate(-283.344 392.151)" fill="#a8c4ff"/>
        <path id="path276" d="M397.011-143.511h82.659a13.129,13.129,0,0,0,13.115-13.117V-162.9H403.336v6.269a16.76,16.76,0,0,1-6.326,13.117Zm82.659,3.664H386.558a1.831,1.831,0,0,1-1.832-1.832,1.831,1.831,0,0,1,1.832-1.832,13.129,13.129,0,0,0,13.115-13.117v-8.1a1.834,1.834,0,0,1,1.832-1.832h93.112a1.833,1.833,0,0,1,1.832,1.832v8.1a16.8,16.8,0,0,1-16.779,16.781" transform="translate(-283.969 391.525)" fill="none"/>
        <path id="path278" d="M432.532-237.408H384.482a1.832,1.832,0,0,1-1.832-1.832,1.833,1.833,0,0,1,1.832-1.832h48.051a1.833,1.833,0,0,1,1.832,1.832,1.831,1.831,0,0,1-1.832,1.832" transform="translate(-285.044 352.917)" fill="#a8c4ff"/>
        <path id="path280" d="M432.532-217.234H384.482a1.831,1.831,0,0,1-1.832-1.832,1.831,1.831,0,0,1,1.832-1.83h48.051a1.831,1.831,0,0,1,1.832,1.83,1.831,1.831,0,0,1-1.832,1.832" transform="translate(-285.044 363.371)" fill="#a8c4ff"/>
        <path id="path282" d="M432.532-207.145H384.482a1.832,1.832,0,0,1-1.832-1.832,1.831,1.831,0,0,1,1.832-1.832h48.051a1.831,1.831,0,0,1,1.832,1.832,1.831,1.831,0,0,1-1.832,1.832" transform="translate(-285.044 368.598)" fill="#a8c4ff"/>
        <path id="path284" d="M432.532-227.32H384.482a1.833,1.833,0,0,1-1.832-1.832,1.832,1.832,0,0,1,1.832-1.832h48.051a1.831,1.831,0,0,1,1.832,1.832,1.833,1.833,0,0,1-1.832,1.832" transform="translate(-285.044 358.144)" fill="#a8c4ff"/>
        <path id="path286" d="M406.267-296.254H358.216a1.831,1.831,0,0,1-1.832-1.832,1.833,1.833,0,0,1,1.832-1.832h48.051a1.833,1.833,0,0,1,1.832,1.832,1.832,1.832,0,0,1-1.832,1.832" transform="translate(-298.654 322.425)" fill="#a8c4ff"/>
        <path id="path288" d="M406.267-276.08H358.216a1.831,1.831,0,0,1-1.832-1.83,1.831,1.831,0,0,1,1.832-1.832h48.051a1.831,1.831,0,0,1,1.832,1.832,1.831,1.831,0,0,1-1.832,1.83" transform="translate(-298.654 332.88)" fill="#a8c4ff"/>
        <path id="path290" d="M406.267-286.166H358.216A1.831,1.831,0,0,1,356.385-288a1.831,1.831,0,0,1,1.832-1.832h48.051A1.831,1.831,0,0,1,408.1-288a1.832,1.832,0,0,1-1.832,1.832" transform="translate(-298.654 327.652)" fill="#a8c4ff"/>
        <path id="path292" d="M432.532-197.057H384.482a1.833,1.833,0,0,1-1.832-1.832,1.831,1.831,0,0,1,1.832-1.832h48.051a1.831,1.831,0,0,1,1.832,1.832,1.833,1.833,0,0,1-1.832,1.832" transform="translate(-285.044 373.825)" fill="#a8c4ff"/>
        <path id="path294" d="M432.532-186.971H384.482a1.832,1.832,0,0,1-1.832-1.832,1.831,1.831,0,0,1,1.832-1.83h48.051a1.831,1.831,0,0,1,1.832,1.83,1.831,1.831,0,0,1-1.832,1.832" transform="translate(-285.044 379.052)" fill="#a8c4ff"/>
        <path id="path296" d="M436.219-249.425a10.143,10.143,0,0,1-10.143,10.143,10.143,10.143,0,0,1-10.143-10.143,10.143,10.143,0,0,1,10.143-10.141,10.143,10.143,0,0,1,10.143,10.141" transform="translate(-267.799 343.334)" fill="#a8c4ff"/>
        <path id="path298" d="M426.7-257.109a8.319,8.319,0,0,0-8.311,8.309,8.321,8.321,0,0,0,8.311,8.311,8.321,8.321,0,0,0,8.311-8.311A8.319,8.319,0,0,0,426.7-257.109Zm0,20.285A11.987,11.987,0,0,1,414.727-248.8,11.987,11.987,0,0,1,426.7-260.773,11.987,11.987,0,0,1,438.673-248.8,11.987,11.987,0,0,1,426.7-236.824" transform="translate(-268.423 342.709)" fill="none"/>
        <path id="path300" d="M428.941-250.43h-8.5a1.831,1.831,0,0,1-1.832-1.832,1.831,1.831,0,0,1,1.832-1.83h8.5a1.831,1.831,0,0,1,1.832,1.83,1.832,1.832,0,0,1-1.832,1.832" transform="translate(-266.413 346.171)" fill="#e7eefd"/>
        <path id="path302" d="M423.239-244.728a1.831,1.831,0,0,1-1.832-1.83v-8.5a1.831,1.831,0,0,1,1.832-1.83,1.831,1.831,0,0,1,1.832,1.83v8.5a1.831,1.831,0,0,1-1.832,1.83" transform="translate(-264.962 344.72)" fill="#e7eefd"/>
        <path id="path304" d="M405.646-172.162a10.143,10.143,0,0,1-10.141,10.143,10.143,10.143,0,0,1-10.143-10.143A10.143,10.143,0,0,1,395.505-182.3a10.143,10.143,0,0,1,10.141,10.143" transform="translate(-283.639 383.367)" fill="#a8c4ff"/>
        <path id="path306" d="M396.13-179.848a8.321,8.321,0,0,0-8.311,8.311,8.321,8.321,0,0,0,8.311,8.311,8.319,8.319,0,0,0,8.309-8.311A8.319,8.319,0,0,0,396.13-179.848Zm0,20.285a11.987,11.987,0,0,1-11.975-11.973A11.987,11.987,0,0,1,396.13-183.51,11.987,11.987,0,0,1,408.1-171.537a11.987,11.987,0,0,1-11.973,11.973" transform="translate(-284.264 382.743)" fill="none"/>
        <path id="path308" d="M398.37-173.166h-8.5a1.831,1.831,0,0,1-1.83-1.832,1.831,1.831,0,0,1,1.83-1.832h8.5A1.831,1.831,0,0,1,400.2-175a1.831,1.831,0,0,1-1.83,1.832" transform="translate(-282.253 386.204)" fill="#e7eefd"/>
      </g>
      <g id="Group_1536" data-name="Group 1536" transform="translate(-1113.016 5927.656)">
        <path id="path310" d="M496.171-136.126h-70.8a3.956,3.956,0,0,1-3.955-3.955v-96.362a3.954,3.954,0,0,1,3.955-3.955h70.8a3.955,3.955,0,0,1,3.957,3.955v96.362a3.956,3.956,0,0,1-3.957,3.955" transform="translate(-419.579 242.231)" fill="#a8c4ff"/>
        <path id="path312" d="M426.894-237.944a3.031,3.031,0,0,0-3.026,3.026v94.559a3.031,3.031,0,0,0,3.026,3.026h69a3.031,3.031,0,0,0,3.028-3.026v-94.559a3.031,3.031,0,0,0-3.028-3.026Zm69,104.275h-69a6.7,6.7,0,0,1-6.69-6.69v-94.559a6.7,6.7,0,0,1,6.69-6.688h69a6.7,6.7,0,0,1,6.69,6.688v94.559a6.7,6.7,0,0,1-6.69,6.69" transform="translate(-420.204 241.606)" fill="none"/>
        <path id="path314" d="M483.08-215.566H433.088a6.5,6.5,0,0,1-6.5-6.5v-6.429a6.5,6.5,0,0,1,6.5-6.5H483.08a6.5,6.5,0,0,1,6.5,6.5v6.429a6.5,6.5,0,0,1-6.5,6.5" transform="translate(-416.894 245.036)" fill="#e7eefd"/>
        <path id="path316" d="M434.7-205.3h-4.032a4.076,4.076,0,0,1-4.077-4.075V-213.5a4.076,4.076,0,0,1,4.077-4.075H434.7a4.074,4.074,0,0,1,4.075,4.075v4.117A4.074,4.074,0,0,1,434.7-205.3" transform="translate(-416.894 254.061)" fill="#7ba0ed"/>
        <path id="path318" d="M445.854-205.3h-4.032a4.074,4.074,0,0,1-4.075-4.075V-213.5a4.074,4.074,0,0,1,4.075-4.075h4.032a4.074,4.074,0,0,1,4.075,4.075v4.117a4.074,4.074,0,0,1-4.075,4.075" transform="translate(-411.114 254.061)" fill="#7ba0ed"/>
        <path id="path320" d="M457.009-205.3h-4.034a4.075,4.075,0,0,1-4.075-4.075V-213.5a4.075,4.075,0,0,1,4.075-4.075h4.034a4.075,4.075,0,0,1,4.075,4.075v4.117a4.075,4.075,0,0,1-4.075,4.075" transform="translate(-405.335 254.061)" fill="#7ba0ed"/>
        <path id="path322" d="M468.162-205.3H464.13a4.074,4.074,0,0,1-4.075-4.075V-213.5a4.074,4.074,0,0,1,4.075-4.075h4.032a4.074,4.074,0,0,1,4.075,4.075v4.117a4.074,4.074,0,0,1-4.075,4.075" transform="translate(-399.555 254.061)" fill="#fac57b"/>
        <path id="path324" d="M434.7-194.517h-4.032a4.076,4.076,0,0,1-4.077-4.075v-4.117a4.076,4.076,0,0,1,4.077-4.075H434.7a4.074,4.074,0,0,1,4.075,4.075v4.117a4.074,4.074,0,0,1-4.075,4.075" transform="translate(-416.894 259.65)" fill="#e7eefd"/>
        <path id="path326" d="M445.854-194.517h-4.032a4.074,4.074,0,0,1-4.075-4.075v-4.117a4.074,4.074,0,0,1,4.075-4.075h4.032a4.074,4.074,0,0,1,4.075,4.075v4.117a4.074,4.074,0,0,1-4.075,4.075" transform="translate(-411.114 259.65)" fill="#e7eefd"/>
        <path id="path328" d="M457.009-194.517h-4.034a4.075,4.075,0,0,1-4.075-4.075v-4.117a4.075,4.075,0,0,1,4.075-4.075h4.034a4.075,4.075,0,0,1,4.075,4.075v4.117a4.075,4.075,0,0,1-4.075,4.075" transform="translate(-405.335 259.65)" fill="#e7eefd"/>
        <path id="path330" d="M468.162-194.517H464.13a4.074,4.074,0,0,1-4.075-4.075v-4.117a4.074,4.074,0,0,1,4.075-4.075h4.032a4.074,4.074,0,0,1,4.075,4.075v4.117a4.074,4.074,0,0,1-4.075,4.075" transform="translate(-399.555 259.65)" fill="#7ba0ed"/>
        <path id="path332" d="M434.7-183.73h-4.032a4.076,4.076,0,0,1-4.077-4.075v-4.117A4.076,4.076,0,0,1,430.669-196H434.7a4.074,4.074,0,0,1,4.075,4.075v4.117a4.074,4.074,0,0,1-4.075,4.075" transform="translate(-416.894 265.239)" fill="#e7eefd"/>
        <path id="path334" d="M445.854-183.73h-4.032a4.074,4.074,0,0,1-4.075-4.075v-4.117A4.074,4.074,0,0,1,441.822-196h4.032a4.074,4.074,0,0,1,4.075,4.075v4.117a4.074,4.074,0,0,1-4.075,4.075" transform="translate(-411.114 265.239)" fill="#e7eefd"/>
        <path id="path336" d="M457.009-183.73h-4.034A4.075,4.075,0,0,1,448.9-187.8v-4.117A4.075,4.075,0,0,1,452.975-196h4.034a4.075,4.075,0,0,1,4.075,4.075v4.117a4.075,4.075,0,0,1-4.075,4.075" transform="translate(-405.335 265.239)" fill="#e7eefd"/>
        <path id="path338" d="M468.162-183.73H464.13a4.074,4.074,0,0,1-4.075-4.075v-4.117A4.074,4.074,0,0,1,464.13-196h4.032a4.074,4.074,0,0,1,4.075,4.075v4.117a4.074,4.074,0,0,1-4.075,4.075" transform="translate(-399.555 265.239)" fill="#7ba0ed"/>
        <path id="path340" d="M434.7-172.943h-4.032a4.076,4.076,0,0,1-4.077-4.075v-4.117a4.076,4.076,0,0,1,4.077-4.075H434.7a4.074,4.074,0,0,1,4.075,4.075v4.117a4.074,4.074,0,0,1-4.075,4.075" transform="translate(-416.894 270.828)" fill="#e7eefd"/>
        <path id="path342" d="M445.854-172.943h-4.032a4.074,4.074,0,0,1-4.075-4.075v-4.117a4.074,4.074,0,0,1,4.075-4.075h4.032a4.074,4.074,0,0,1,4.075,4.075v4.117a4.074,4.074,0,0,1-4.075,4.075" transform="translate(-411.114 270.828)" fill="#e7eefd"/>
        <path id="path344" d="M457.009-172.943h-4.034a4.075,4.075,0,0,1-4.075-4.075v-4.117a4.075,4.075,0,0,1,4.075-4.075h4.034a4.075,4.075,0,0,1,4.075,4.075v4.117a4.075,4.075,0,0,1-4.075,4.075" transform="translate(-405.335 270.828)" fill="#e7eefd"/>
        <path id="path346" d="M468.162-172.943H464.13a4.074,4.074,0,0,1-4.075-4.075v-4.117a4.074,4.074,0,0,1,4.075-4.075h4.032a4.074,4.074,0,0,1,4.075,4.075v4.117a4.074,4.074,0,0,1-4.075,4.075" transform="translate(-399.555 270.828)" fill="#7ba0ed"/>
      </g>
      <g id="Group_1531" data-name="Group 1531" transform="translate(-961.553 5863.08)">
        <path id="path348" d="M521.562-192.82l10.85-18.471a45.827,45.827,0,0,1-7.775-25.606,46.039,46.039,0,0,1,46.039-46.039A46.039,46.039,0,0,1,616.714-236.9a46.039,46.039,0,0,1-46.039,46.041,45.825,45.825,0,0,1-25.847-7.939L525.119-189a2.721,2.721,0,0,1-3.556-3.816" transform="translate(-519.349 284.767)" fill="#f8b838"/>
        <path id="path350" d="M571.3-280.478a44.257,44.257,0,0,0-44.207,44.207,43.985,43.985,0,0,0,7.465,24.586,1.838,1.838,0,0,1,.059,1.947l-10.852,18.473h0a.847.847,0,0,0,.117,1.055.844.844,0,0,0,1.046.19l19.708-9.791a1.836,1.836,0,0,1,1.844.125,43.966,43.966,0,0,0,24.819,7.623A44.257,44.257,0,0,0,615.5-236.271,44.257,44.257,0,0,0,571.3-280.478Zm-46.777,94.221a4.526,4.526,0,0,1-3.32-1.455,4.521,4.521,0,0,1-.6-5.409l10.275-17.493a47.636,47.636,0,0,1-7.453-25.657,47.925,47.925,0,0,1,47.87-47.871,47.925,47.925,0,0,1,47.871,47.87A47.925,47.925,0,0,1,571.3-188.4a47.613,47.613,0,0,1-25.981-7.66l-18.76,9.321a4.583,4.583,0,0,1-2.036.482" transform="translate(-519.972 284.142)" fill="none"/>
        <path id="path352" d="M568.752-230.848a4.1,4.1,0,0,0-.824-2.621,7.39,7.39,0,0,0-3-1.951v9.218q3.823-1.2,3.822-4.646Zm-11.765-27.276Q553.765-257,553.764-254t3.223,4.573Zm0,47.583v-5.469a32.522,32.522,0,0,1-12.9-5.052,5.4,5.4,0,0,1-1.055-7.919h0a5.394,5.394,0,0,1,7.228-1.075,23.91,23.91,0,0,0,6.724,3.48v-11.166q-7.867-2.022-11.54-5.433t-3.672-9.817a14.25,14.25,0,0,1,4.2-10.566,18.23,18.23,0,0,1,11.016-4.984v-3.67h7.943v3.822a31.226,31.226,0,0,1,9.526,3.014,5.377,5.377,0,0,1,2.134,7.886h0a5.272,5.272,0,0,1-6.805,1.69,23.243,23.243,0,0,0-4.854-2.024v10.791q8.095,2.1,11.953,5.619t3.86,9.967a14.214,14.214,0,0,1-4.31,10.639,19.027,19.027,0,0,1-11.5,5.022v5.245h-7.943" transform="translate(-508.676 290.323)" fill="#e7eefd"/>
      </g>
      <g id="Group_1533" data-name="Group 1533" transform="translate(-922.993 5928.883)">
        <path id="path452" d="M681.7-169.028c0-24.744-27.175-44.8-60.7-44.8a79.6,79.6,0,0,0-22.762,3.261h0L583.458-224.2a3.028,3.028,0,0,0-5.081,2.271c.13,8.253.261,20.823-.125,21.1h0c-8.21,6.012-14.1,13.746-16.6,22.406h-9.832a5.239,5.239,0,0,0-5.238,5.239v8.309a5.238,5.238,0,0,0,5.238,5.239h9.832c3.631,12.56,14.39,23.171,29.007,29.414v11.91a6.918,6.918,0,0,0,6.919,6.919h1.338a6.918,6.918,0,0,0,6.919-6.919v-7.328A81.382,81.382,0,0,0,621-124.228a81.392,81.392,0,0,0,15.176-1.411v7.328a6.918,6.918,0,0,0,6.917,6.919h1.338a6.918,6.918,0,0,0,6.919-6.919v-11.91c18.143-7.747,30.349-22.224,30.349-38.806" transform="translate(-544.745 248.978)" fill="#e7eefd"/>
        <path id="path454" d="M636.8-126.844a1.838,1.838,0,0,1,1.168.421,1.833,1.833,0,0,1,.662,1.411v7.328a5.093,5.093,0,0,0,5.087,5.087h1.338a5.092,5.092,0,0,0,5.087-5.087V-129.6a1.835,1.835,0,0,1,1.113-1.684c18.034-7.7,29.236-21.922,29.236-37.12,0-23.693-26.408-42.97-58.866-42.97a77.571,77.571,0,0,0-22.236,3.184,1.833,1.833,0,0,1-1.767-.409l-14.785-13.633a1.159,1.159,0,0,0-1.3-.213,1.153,1.153,0,0,0-.706,1.109c.34,21.732.128,21.886-.887,22.617-8.064,5.907-13.572,13.319-15.916,21.43a1.831,1.831,0,0,1-1.759,1.322h-9.832a3.411,3.411,0,0,0-3.407,3.407v8.309a3.411,3.411,0,0,0,3.407,3.409h9.832a1.831,1.831,0,0,1,1.759,1.322c3.415,11.815,13.609,22.106,27.969,28.236a1.833,1.833,0,0,1,1.111,1.684v11.912A5.092,5.092,0,0,0,598.2-112.6h1.338a5.092,5.092,0,0,0,5.087-5.087v-7.328a1.829,1.829,0,0,1,.664-1.411,1.832,1.832,0,0,1,1.51-.389,80.835,80.835,0,0,0,29.665,0,1.78,1.78,0,0,1,.342-.032Zm8.255,17.91h-1.338a8.759,8.759,0,0,1-8.749-8.751v-5.148a84.649,84.649,0,0,1-26.685,0v5.148a8.76,8.76,0,0,1-8.751,8.751H598.2a8.759,8.759,0,0,1-8.749-8.751V-128.4c-14.269-6.386-24.558-16.775-28.527-28.778h-8.481a7.079,7.079,0,0,1-7.07-7.071v-8.309a7.079,7.079,0,0,1,7.07-7.071h8.481c2.7-8.168,8.291-15.6,16.273-21.606.089-1.328.2-5.7-.022-20.042a4.787,4.787,0,0,1,2.872-4.51,4.8,4.8,0,0,1,5.279.862l14.024,12.933a81.478,81.478,0,0,1,22.28-3.042c34.478,0,62.53,20.918,62.53,46.632,0,16.368-11.595,31.606-30.349,40v10.714a8.76,8.76,0,0,1-8.751,8.751" transform="translate(-545.371 248.351)" fill="none"/>
        <path id="path456" d="M625.839-203a1.829,1.829,0,0,1-.731-.154,75.876,75.876,0,0,0-30.078-6.038,1.831,1.831,0,0,1-1.83-1.832,1.831,1.831,0,0,1,1.83-1.832,79.565,79.565,0,0,1,31.539,6.344,1.83,1.83,0,0,1,.947,2.411,1.831,1.831,0,0,1-1.678,1.1" transform="translate(-520.587 255.277)" fill="#a8c4ff"/>
        <path id="path458" d="M583.679-193.189a9.635,9.635,0,0,1-9.623-9.625,1.831,1.831,0,0,1,1.83-1.832,1.831,1.831,0,0,1,1.832,1.832,5.968,5.968,0,0,0,5.961,5.961,5.968,5.968,0,0,0,5.961-5.961,1.833,1.833,0,0,1,1.832-1.832,1.831,1.831,0,0,1,1.832,1.832,9.636,9.636,0,0,1-9.625,9.625" transform="translate(-530.507 259.531)" fill="#a8c4ff"/>
        <path id="path460" d="M644-178.54a9.636,9.636,0,0,1-9.625-9.625A1.831,1.831,0,0,1,636.208-190a1.832,1.832,0,0,1,1.832,1.832A5.968,5.968,0,0,0,644-182.2a5.968,5.968,0,0,0,5.961-5.961A1.832,1.832,0,0,1,651.794-190a1.831,1.831,0,0,1,1.832,1.832A9.636,9.636,0,0,1,644-178.54" transform="translate(-499.252 267.121)" fill="#a8c4ff"/>
        <path id="path462" d="M615.233-154.281a2.749,2.749,0,0,1-2.528-1.668,2.75,2.75,0,0,1,1.447-3.607c13.732-5.862,22.264-16.619,22.264-28.072a2.747,2.747,0,0,1,2.747-2.749,2.748,2.748,0,0,1,2.747,2.749c0,13.69-9.809,26.384-25.6,33.126a2.743,2.743,0,0,1-1.077.221" transform="translate(-510.595 266.924)" fill="#a8c4ff"/>
        <path id="path464" d="M565.788-183.674h-12.21a2.748,2.748,0,0,1-2.749-2.747,2.749,2.749,0,0,1,2.749-2.749h12.21a2.748,2.748,0,0,1,2.747,2.749,2.748,2.748,0,0,1-2.747,2.747" transform="translate(-542.542 267.55)" fill="#a8c4ff"/>
        <g id="Group_1532" data-name="Group 1532" transform="translate(71.783 0)">
          <path id="path470" d="M633.213-219.914a19.676,19.676,0,0,1-19.675,19.675,19.676,19.676,0,0,1-19.677-19.675,19.677,19.677,0,0,1,19.677-19.677,19.676,19.676,0,0,1,19.675,19.677" transform="translate(-592.028 241.423)" fill="#f8b838"/>
          <path id="path472" d="M614.162-237.134a17.866,17.866,0,0,0-17.845,17.845,17.864,17.864,0,0,0,17.845,17.843,17.864,17.864,0,0,0,17.845-17.843A17.866,17.866,0,0,0,614.162-237.134Zm0,39.353a21.534,21.534,0,0,1-21.509-21.507A21.534,21.534,0,0,1,614.162-240.8a21.532,21.532,0,0,1,21.507,21.509,21.532,21.532,0,0,1-21.507,21.507" transform="translate(-592.653 240.798)" fill="none"/>
          <path id="path474" d="M612.184-236.064a14.813,14.813,0,0,0-14.8,14.8,14.814,14.814,0,0,0,14.8,14.8,14.816,14.816,0,0,0,14.8-14.8A14.814,14.814,0,0,0,612.184-236.064Zm0,30.509a15.731,15.731,0,0,1-15.714-15.712,15.732,15.732,0,0,1,15.714-15.714A15.73,15.73,0,0,1,627.9-221.267a15.73,15.73,0,0,1-15.712,15.712" transform="translate(-590.675 242.776)" fill="#edcc7f"/>
          <path id="path476" d="M611.211-220.1a1.267,1.267,0,0,0-.257-.814,2.268,2.268,0,0,0-.929-.605v2.86A1.449,1.449,0,0,0,611.211-220.1Zm-3.652-8.465a1.293,1.293,0,0,0-1,1.279,1.537,1.537,0,0,0,1,1.419Zm0,14.767v-1.7a10.1,10.1,0,0,1-4-1.567,1.676,1.676,0,0,1-.328-2.457h0a1.674,1.674,0,0,1,2.243-.334,7.436,7.436,0,0,0,2.087,1.079v-3.463a8.3,8.3,0,0,1-3.581-1.686,3.953,3.953,0,0,1-1.14-3.046,4.422,4.422,0,0,1,1.3-3.279,5.657,5.657,0,0,1,3.417-1.546v-1.138h2.465v1.184a9.765,9.765,0,0,1,2.956.935,1.668,1.668,0,0,1,.662,2.447h0a1.633,1.633,0,0,1-2.111.524,7.223,7.223,0,0,0-1.506-.628v3.348a8.757,8.757,0,0,1,3.708,1.745,3.971,3.971,0,0,1,1.2,3.093,4.407,4.407,0,0,1-1.338,3.3,5.913,5.913,0,0,1-3.569,1.559v1.627h-2.465" transform="translate(-587.376 244.874)" fill="#fff"/>
        </g>
      </g>
      <g id="Group_1534" data-name="Group 1534" transform="translate(-966.73 5997.16)">
        <path id="path482" d="M549.153-133.583H532.814a16.271,16.271,0,0,1-16.252-16.252V-162.4a16.271,16.271,0,0,1,16.252-16.252h16.339A16.271,16.271,0,0,1,565.406-162.4v12.564a16.271,16.271,0,0,1-16.252,16.252" transform="translate(-516.561 204.723)" fill="#a8c4ff"/>
        <path id="path484" d="M552.657-168.546h-6.23v-11.078a8.773,8.773,0,0,0-8.765-8.763,8.773,8.773,0,0,0-8.763,8.763v11.078h-6.233v-11.078a15.014,15.014,0,0,1,15-15,15.013,15.013,0,0,1,15,15v11.078" transform="translate(-513.398 196.449)" fill="#cfdaf0"/>
        <path id="path488" d="M540.324-165a5.723,5.723,0,0,0-5.722-5.722A5.722,5.722,0,0,0,528.879-165a5.708,5.708,0,0,0,1.986,4.334l-.769,10.929h9.01l-.767-10.929A5.708,5.708,0,0,0,540.324-165" transform="translate(-510.179 208.833)" fill="#cfdaf0"/>
        <path id="path492" d="M539.888-146.292a2.747,2.747,0,0,1-2.747-2.747,2.745,2.745,0,0,1,2.747-2.747,3.807,3.807,0,0,0,3.8-3.8v-8.83a2.748,2.748,0,0,1,2.747-2.747,2.747,2.747,0,0,1,2.747,2.747v8.83a9.306,9.306,0,0,1-9.3,9.3" transform="translate(-505.898 210.676)" fill="#cfdaf0"/>
      </g>
    </g>
    <g id="Group_1523" data-name="Group 1523" transform="translate(303 920.735)">
      <path id="path370" d="M1132.415-146.368H40.191a2.525,2.525,0,0,1-2.525-2.526,2.527,2.527,0,0,1,2.525-2.526H1132.415a2.528,2.528,0,0,1,2.526,2.526,2.527,2.527,0,0,1-2.526,2.526" transform="translate(0.129 151.42)" fill="#fff"/>
      <path id="path436" d="M47.387-146.322H22.135a2.526,2.526,0,0,1-2.526-2.526,2.526,2.526,0,0,1,2.526-2.526H47.387a2.525,2.525,0,0,1,2.525,2.526,2.525,2.525,0,0,1-2.525,2.526" transform="translate(-19.609 151.471)" fill="#fff"/>
      <path id="path438" d="M630.156-146.368h-61.4a2.525,2.525,0,0,1-2.526-2.526,2.527,2.527,0,0,1,2.526-2.526h61.4a2.526,2.526,0,0,1,2.523,2.526,2.524,2.524,0,0,1-2.523,2.526" transform="translate(577.93 151.42)" fill="#fff"/>
      <path id="path440" d="M633.392-146.327H608.14a2.525,2.525,0,0,1-2.526-2.526,2.525,2.525,0,0,1,2.526-2.526h25.252a2.527,2.527,0,0,1,2.526,2.526,2.527,2.527,0,0,1-2.526,2.526" transform="translate(620.978 151.465)" fill="#fff"/>
      <path id="path442" d="M645.517-146.368h-16.5a2.525,2.525,0,0,1-2.526-2.526,2.527,2.527,0,0,1,2.526-2.526h16.5a2.527,2.527,0,0,1,2.526,2.526,2.525,2.525,0,0,1-2.526,2.526" transform="translate(643.803 151.42)" fill="#fff"/>
      <path id="path502" d="M627.381-128.989h-352.9a2.524,2.524,0,0,1-2.526-2.525,2.525,2.525,0,0,1,2.526-2.523h352.9a2.525,2.525,0,0,1,2.526,2.523,2.524,2.524,0,0,1-2.526,2.525" transform="translate(256.238 170.421)" fill="#fff"/>
      <path id="path504" d="M519.642-128.989H452.486a2.524,2.524,0,0,1-2.526-2.525,2.525,2.525,0,0,1,2.526-2.523h67.156a2.525,2.525,0,0,1,2.526,2.523,2.524,2.524,0,0,1-2.526,2.525" transform="translate(450.826 170.421)" fill="#fff"/>
      <path id="path506" d="M546.23-128.989H495.917a2.524,2.524,0,0,1-2.526-2.525,2.525,2.525,0,0,1,2.526-2.523H546.23a2.525,2.525,0,0,1,2.526,2.523,2.524,2.524,0,0,1-2.526,2.525" transform="translate(498.302 170.421)" fill="#fff"/>
      <path id="path508" d="M543.891-128.989H530.858a2.524,2.524,0,0,1-2.526-2.525,2.525,2.525,0,0,1,2.526-2.523h13.033a2.525,2.525,0,0,1,2.526,2.523,2.524,2.524,0,0,1-2.526,2.525" transform="translate(536.497 170.421)" fill="#fff"/>
      <path id="path510" d="M397.672-138.036H204.193a2.525,2.525,0,0,1-2.526-2.526,2.524,2.524,0,0,1,2.526-2.523H397.672a2.525,2.525,0,0,1,2.526,2.523,2.525,2.525,0,0,1-2.526,2.526" transform="translate(179.406 160.531)" fill="#fff"/>
      <path id="path512" d="M191.651-128.989H90.969a2.524,2.524,0,0,1-2.525-2.525,2.525,2.525,0,0,1,2.525-2.523H191.651a2.525,2.525,0,0,1,2.526,2.523,2.524,2.524,0,0,1-2.526,2.525" transform="translate(55.637 170.421)" fill="#fff"/>
      <path id="path514" d="M200.591-128.989H157.048a2.526,2.526,0,0,1-2.526-2.525,2.526,2.526,0,0,1,2.526-2.523h43.543a2.525,2.525,0,0,1,2.526,2.523,2.524,2.524,0,0,1-2.526,2.525" transform="translate(127.87 170.421)" fill="#fff"/>
      <path id="path516" d="M653.377-138.036H484.57a2.525,2.525,0,0,1-2.526-2.526,2.524,2.524,0,0,1,2.526-2.523H653.377a2.524,2.524,0,0,1,2.526,2.523,2.525,2.525,0,0,1-2.526,2.526" transform="translate(485.898 160.531)" fill="#fff"/>
      <path id="path518" d="M620.481-138.036h-25.3a2.525,2.525,0,0,1-2.526-2.526,2.524,2.524,0,0,1,2.526-2.523h25.3a2.524,2.524,0,0,1,2.526,2.523,2.525,2.525,0,0,1-2.526,2.526" transform="translate(606.81 160.531)" fill="#fff"/>
      <path id="path520" d="M170.859-138.036H70.217a2.525,2.525,0,0,1-2.526-2.526,2.524,2.524,0,0,1,2.526-2.523H170.859a2.524,2.524,0,0,1,2.525,2.523,2.525,2.525,0,0,1-2.525,2.526" transform="translate(32.951 160.531)" fill="#fff"/>
    </g>
  </g>
</svg>
